<svg xmlns="http://www.w3.org/2000/svg" viewBox="0 0 23.73 35"><defs><style>.cls-1{fill:#00e59e;}</style></defs><title>statue-of-liberty</title><g id="Слой_2" data-name="Слой 2"><g id="Capa_1" data-name="Capa 1"><path class="cls-1" d="M23.66,34.23l-1.84-3.49.9-.82a.52.52,0,0,0,.07-.69l-3.33-4.57a.52.52,0,0,0-.42-.21h-.21V18.11a4.17,4.17,0,0,0-.05-.67L20.37,17a.53.53,0,0,0,.38-.59.52.52,0,0,0-.66-.42l-1.6.47-.14-.28,2.15-1.52a.52.52,0,1,0-.6-.85l-2.15,1.52a4.2,4.2,0,0,0-.5-.46L18.95,12a.52.52,0,0,0-.89-.54l-1.69,2.81A4.13,4.13,0,0,0,15.2,14V10a.53.53,0,0,0-.5-.54.52.52,0,0,0-.54.52v4a4.12,4.12,0,0,0-1.16.32L11.31,11.5a.52.52,0,0,0-.89.54l1.69,2.81a4.19,4.19,0,0,0-.5.46L9.46,13.79a.52.52,0,1,0-.6.85L11,16.16l-.14.28L9.28,16a.52.52,0,0,0-.65.37A.53.53,0,0,0,9,17l1.58.47a4.17,4.17,0,0,0-.05.67V23.6l-1-.46L6,11.21V8H7a.52.52,0,0,0,.52-.52V5.83A.52.52,0,0,0,7,5.31H6.29L6.73,1.6a.53.53,0,0,0-.16-.45.52.52,0,0,0-.67,0L5,1.78,4.51.36A.54.54,0,0,0,4.18,0a.52.52,0,0,0-.62.26L2.68,2,1.6,1.13A.53.53,0,0,0,1.13,1a.52.52,0,0,0-.37.57l.51,3.71H.52A.52.52,0,0,0,0,5.83V7.49A.52.52,0,0,0,.52,8h1v1.6a2.2,2.2,0,0,0,1.93,2.18l.86,7.09a.52.52,0,0,0,1-.13l-.84-7h.64l3.4,11.6L6.21,26.26l-.61-5a.52.52,0,0,0-1,.13l.73,6.05L3.88,29.18a.52.52,0,0,0,0,.65l2.27,2.79v1.85a.52.52,0,0,0,.52.52H23.21a.52.52,0,0,0,.49-.36A.54.54,0,0,0,23.66,34.23ZM2.53,3.17A.52.52,0,0,0,3.31,3l.61-1.18.35,1a.52.52,0,0,0,.8.24l.47-.36L5.25,5.31H2.32L2,2.73ZM5,10.77H3.68A1.16,1.16,0,0,1,2.52,9.61V8H5ZM2,7H1V6.35H6.45V7H2Zm12.68,8a3.12,3.12,0,0,1,3,2.44,4.15,4.15,0,0,0-6.09,0A3.12,3.12,0,0,1,14.68,15Zm-3.12,7.63A4.15,4.15,0,0,0,14.68,24a.52.52,0,0,0,0-1,3.12,3.12,0,0,1-3.11-2.93,3.12,3.12,0,0,1,6.23.19v4.18H12.4l-.84-.37ZM11.78,34H7.2V32.61l2.65-3.53A.52.52,0,1,0,9,28.46L6.66,31.6,5,29.51l4.27-5.35,2.26,1-.85,1.13a.52.52,0,1,0,.83.62l1.08-1.44H18Zm1.29,0,6-8.12,2.64,3.62-2,1.87a.52.52,0,0,0,.7.77l.7-.64L22.35,34H13.07Z"/><path class="cls-1" d="M16.78,19l-2-.46a.52.52,0,0,0-.24,0l-2,.46a.52.52,0,1,0,.24,1l1.34-.31v.78a.52.52,0,1,0,1,0v-.78l1.34.31h.12a.52.52,0,0,0,.12-1Z"/></g></g></svg>