<svg height="512pt" viewBox="-64 0 512 512" width="512pt" xmlns="http://www.w3.org/2000/svg"><path fill="#00e59e" d="m201.820312 75.613281c-6.90625 0-12.527343 5.617188-12.527343 12.523438v40.945312h-54.210938c-6.90625 0-12.523437 5.617188-12.523437 12.523438v36.242187c0 6.90625 5.617187 12.523438 12.523437 12.523438h54.210938v133.570312c0 6.90625 5.621093 12.523438 12.527343 12.523438h36.242188c6.90625 0 12.523438-5.617188 12.523438-12.523438v-133.570312h54.210937c6.90625 0 12.523437-5.617188 12.523437-12.523438v-36.242187c0-6.90625-5.617187-12.523438-12.523437-12.523438h-54.210937v-40.945312c0-6.90625-5.621094-12.523438-12.523438-12.523438zm46.3125 68.449219h54.210938v31.332031h-54.210938c-6.90625 0-12.527343 5.617188-12.527343 12.523438v133.566406h-31.332031v-133.566406c0-6.90625-5.617188-12.523438-12.523438-12.523438h-54.210938v-31.332031h54.210938c6.90625 0 12.523438-5.617188 12.523438-12.523438v-40.945312h31.332031v40.941406c0 6.90625 5.617187 12.527344 12.527343 12.527344zm0 0"/><path fill="#00e59e" d="m361.703125 0h-85.089844c-4.136719 0-7.488281 3.355469-7.488281 7.488281 0 4.140625 3.351562 7.492188 7.488281 7.492188h85.089844c4.195313 0 7.613281 3.414062 7.613281 7.613281v374.503906h-298.75v-382.117187h161.109375c4.136719 0 7.488281-3.351563 7.488281-7.492188 0-4.132812-3.351562-7.488281-7.488281-7.488281h-209.078125c-12.457031 0-22.59374975 10.136719-22.59374975 22.59375v235.898438c0 4.136718 3.35156275 7.488281 7.48828175 7.488281 4.140624 0 7.492187-3.351563 7.492187-7.488281v-235.898438c0-4.199219 3.414063-7.613281 7.613281-7.613281h32.988282v382.117187c-7.574219 0-15.683594-.691406-23.140626.449219-6.367187.976563-12.34375 3.527344-17.460937 7.472656v-99.839843c0-4.136719-3.355469-7.488282-7.492187-7.488282-4.132813 0-7.48828175 3.351563-7.48828175 7.488282v130.066406c0 .058594-.00390625.113281-.00390625.171875 0 21.132812 17.191406 38.324219 38.320312 38.324219h2.464844v27.304687c0 3.921875 2.019532 7.445313 5.402344 9.433594 1.726562 1.011719 3.628906 1.519531 5.535156 1.519531 1.828125 0 3.660156-.46875 5.335938-1.402344l18.085937-10.089844 15.289063 9.5c3.371094 2.09375 7.621094 2.199219 11.089844.269532 3.46875-1.929688 5.625-5.59375 5.625-9.5625v-26.972656h254.554687c12.457031 0 22.59375-10.136719 22.59375-22.59375v-428.554688c0-12.457031-10.136719-22.59375-22.59375-22.59375zm-269.539063 493.449219-11.136718-6.921875c-3.378906-2.101563-7.632813-2.199219-11.105469-.261719l-14.15625 7.898437v-51.253906h36.398437zm277.152344-42.300781c0 4.195312-3.414062 7.613281-7.613281 7.613281h-254.558594v-15.851563h262.171875zm0-23.21875h-269.628906c-.011719 0-.019531 0-.03125 0h-51.378906c-4.136719 0-7.492188 3.351562-7.492188 7.488281v23.34375h-2.464844c-12.851562 0-23.308593-10.441407-23.339843-23.285157 0-.019531.003906-.039062.003906-.058593 0-12.671875 10.613281-23.339844 23.335937-23.339844h24.753907 306.242187zm0 0"/></svg>