<?xml version="1.0" encoding="UTF-8"?>
<!DOCTYPE svg PUBLIC "-//W3C//DTD SVG 1.1//EN" "http://www.w3.org/Graphics/SVG/1.1/DTD/svg11.dtd">
<!-- Creator: CorelDRAW X8 -->
<svg xmlns="http://www.w3.org/2000/svg" xml:space="preserve" width="34" version="1.1" style="shape-rendering:geometricPrecision; text-rendering:geometricPrecision; image-rendering:optimizeQuality; fill-rule:evenodd; clip-rule:evenodd"
viewBox="0 0 21552 32691"
 xmlns:xlink="http://www.w3.org/1999/xlink">
 <defs>
  <style type="text/css">
   <![CDATA[
    .fil0 {fill:#00e59e}
   ]]>
  </style>
 </defs>
 <g id="Слой_x0020_1">
  <metadata id="CorelCorpID_0Corel-Layer"/>
  <path class="fil0" d="M14106 30689l-9165 0c-86,0 -165,35 -221,92 -57,57 -92,135 -92,222l-1 0 0 1375 1 0c0,86 35,165 92,221 56,57 135,92 221,92 87,0 166,-35 222,-92 57,-56 92,-135 92,-221l0 -1061 8537 0 0 1061c0,86 35,165 92,221 57,57 135,92 222,92 86,0 165,-35 221,-92 57,-56 92,-135 92,-221l0 -1375 1 0c0,-87 -36,-165 -93,-222 -56,-57 -135,-92 -221,-92zm2749 -16037l-690 0 -845 -2535c-21,-64 -62,-118 -114,-155 -52,-38 -116,-59 -184,-59l-1519 0c0,-426 56,-1196 -4,-1570 -1,-3 -1,-6 -2,-11 -2,-10 -5,-20 -8,-30l1 0 -10 -28 -1 -1 -6 -13 0 0 -2 -6 -1 0 -4 -8 0 0 -11 -19 0 0 -4 -7 0 -1c-6,-8 -13,-16 -19,-25l-10 -11 -11 -11 0 0 -3574 -3574 0 -1703c0,-87 -35,-165 -92,-222 -56,-57 -135,-92 -221,-92 -87,0 -166,35 -222,92 -57,57 -92,135 -92,222l0 1703 -3574 3574 -11 11 -10 12c-2,2 -1,1 -3,4l-4 6 -2 1 -2 4 -7 9 0 0 -5 8 0 0 -6 10 0 0 -5 9 0 0 -4 8 0 0 -5 11 0 0c-1,2 -2,4 -4,8l0 0 -7 20c-1,2 -2,5 -3,9l-1 0 -4 19c-1,2 -2,5 -3,11 -2,10 -3,20 -5,30 -33,476 -1,1060 -1,1550l-1519 0 0 1c-68,0 -132,21 -184,59 -52,37 -93,91 -114,155l-845 2535 -690 0c-86,0 -165,35 -222,92 -56,57 -91,135 -91,222l0 3578c0,87 35,165 91,222 57,57 136,92 222,92 87,0 165,-35 222,-92 57,-57 92,-135 92,-222l0 -3264c199,0 398,2 597,0l1 -1 13437 0 0 14035c-318,0 -768,-29 -1064,0l-11907 0 -3 0 -3 0 -1058 0 0 -9112c0,-87 -35,-165 -92,-222 -57,-57 -135,-92 -222,-92 -86,0 -165,35 -222,92 -56,57 -91,135 -91,222l0 9426c0,87 35,165 91,222 57,57 136,92 222,92l1061 0 0 2436c0,86 35,165 92,221 57,57 135,92 222,92 87,0 165,-35 222,-92 57,-56 92,-135 92,-221l0 -2436 11285 0 0 2436c0,86 36,165 92,221 57,57 136,92 222,92 87,0 165,-35 222,-92 57,-56 92,-135 92,-221l0 -2436 1061 0c86,0 165,-35 222,-92 56,-57 92,-135 92,-222l0 -14662c0,-87 -36,-165 -92,-222 -57,-57 -136,-92 -222,-92zm-7260 -7419l2837 2837 -5817 0 2909 -2908 71 71zm-3322 3464l6602 0 0 1205c-2234,0 -4469,0 -6703,0l0 -1205 101 0zm7230 3854l0 -960c0,-87 -35,-165 -92,-222 -57,-57 -135,-92 -222,-92 -86,0 -165,35 -222,92 -56,57 -92,135 -92,222l0 1061 -3038 0 0 -1061c0,-87 -35,-165 -92,-222 -56,-57 -135,-92 -221,-92 -87,0 -166,35 -222,92 -57,57 -92,135 -92,222l0 1061 -3038 0 0 -1061c0,-87 -36,-165 -92,-222 -57,-57 -136,-92 -222,-92 -87,0 -165,35 -222,92 -57,57 -92,135 -92,222l0 1061 -2000 0 708 -2122 10543 0 708 2122 -2000 0 0 -101zm-3980 1934c-1602,0 -3055,651 -4107,1704 -1053,1052 -1705,2505 -1705,4108 0,1602 652,3055 1705,4108 1052,1052 2505,1704 4107,1704 1603,0 3056,-652 4108,-1704 1053,-1053 1705,-2506 1705,-4108 0,-1603 -652,-3056 -1705,-4108 -1052,-1053 -2505,-1704 -4108,-1704zm0 10997c-1429,0 -2725,-582 -3664,-1521 -939,-938 -1520,-2235 -1520,-3664 0,-1430 581,-2726 1520,-3665 939,-938 2235,-1520 3664,-1520 1430,0 2726,582 3665,1520 939,939 1520,2235 1520,3665l0 0c0,1430 -582,2726 -1520,3664 -939,939 -2235,1521 -3665,1521zm-5040 -10997l-916 0c-87,0 -165,35 -222,92 -57,56 -92,135 -92,221 0,87 35,165 92,222 57,57 135,92 222,92l0 0 916 0 0 0c87,0 165,-35 222,-92 57,-57 92,-135 92,-222 0,-86 -35,-165 -92,-221 -57,-57 -135,-92 -222,-92zm10997 0l-916 0c-87,0 -165,35 -222,92 -57,56 -92,135 -92,221 0,87 35,165 92,222 57,57 135,92 222,92l0 0 916 0 0 0c87,0 165,-35 222,-92 57,-57 92,-135 92,-222l0 0c0,-86 -35,-164 -92,-221 -57,-57 -135,-92 -222,-92zm-10997 10997l-916 0c-87,0 -165,35 -222,92 -57,56 -92,135 -92,221 0,87 35,165 92,222 57,57 135,92 222,92l0 1 916 0 0 -1c87,0 165,-35 222,-92 57,-57 92,-135 92,-222 0,-86 -35,-165 -92,-221 -57,-57 -135,-92 -222,-92zm10997 0l-916 0c-87,0 -165,35 -222,92 -57,56 -92,135 -92,221 0,87 35,165 92,222 57,57 135,92 222,92l0 1 916 0 0 -1c87,0 165,-35 222,-92 57,-57 92,-135 92,-222l0 0c0,-86 -35,-164 -92,-221 -57,-57 -135,-92 -222,-92zm-5957 -9623c-1223,0 -2332,498 -3136,1301 -803,804 -1301,1913 -1301,3137 0,1223 498,2333 1301,3136 804,804 1913,1302 3136,1302 1224,0 2333,-498 3137,-1302 803,-803 1301,-1913 1301,-3136l1 0c-1,-1223 -498,-2333 -1302,-3137 -804,-803 -1913,-1301 -3137,-1301zm0 8248c-1050,0 -2003,-427 -2693,-1117 -689,-690 -1117,-1643 -1117,-2693 0,-1051 428,-2003 1117,-2693 690,-690 1643,-1117 2693,-1117 1051,0 2004,427 2693,1117 690,690 1118,1642 1118,2693 0,1050 -428,2003 -1118,2693 -689,690 -1642,1117 -2693,1117zm1833 -4124l-1519 0 0 -2435c0,-87 -35,-165 -92,-222 -56,-57 -135,-92 -221,-92 -87,0 -166,35 -222,92 -57,57 -92,135 -92,222l0 2749c0,86 35,165 92,222 56,56 135,92 222,92l1832 0c87,0 165,-36 222,-92 57,-57 92,-136 92,-222 0,-87 -35,-165 -92,-222 -57,-57 -135,-92 -222,-92z"/>
  <g id="_814535280">
   <polygon class="fil0" points="10705,0 11028,994 12073,994 11227,1608 11550,2603 10705,1988 9859,2603 10182,1608 9336,994 10382,994 "/>
   <polygon class="fil0" points="15855,1663 16178,2658 17224,2658 16378,3272 16701,4266 15855,3652 15009,4266 15332,3272 14487,2658 15532,2658 "/>
   <polygon class="fil0" points="19369,5130 19692,6124 20738,6124 19892,6739 20215,7733 19369,7119 18523,7733 18846,6739 18001,6124 19046,6124 "/>
   <polygon class="fil0" points="19453,13890 19776,14884 20821,14884 19975,15499 20299,16493 19453,15878 18607,16493 18930,15499 18084,14884 19130,14884 "/>
   <polygon class="fil0" points="2167,5130 2490,6124 3536,6124 2690,6739 3013,7733 2167,7119 1322,7733 1645,6739 799,6124 1844,6124 "/>
   <polygon class="fil0" points="20184,9308 20506,10302 21552,10302 20706,10916 21029,11911 20184,11296 19338,11911 19661,10916 18815,10302 19860,10302 "/>
   <polygon class="fil0" points="1369,9308 1691,10302 2737,10302 1891,10916 2214,11911 1369,11296 523,11911 846,10916 0,10302 1045,10302 "/>
   <polygon class="fil0" points="5721,1663 6044,2658 7089,2658 6244,3272 6567,4266 5721,3652 4875,4266 5198,3272 4353,2658 5398,2658 "/>
  </g>
 </g>
</svg>
