<svg xmlns="http://www.w3.org/2000/svg" viewBox="0 0 343.23 512"><title>fountain-pen</title><g id="Слой_2" data-name="Слой 2"><g id="Слой_1-2" data-name="Слой 1"><path fill="#fff" d="M334.94,98,142.19,1.59a15,15,0,0,0-20.11,6.67L67.41,116.84l-61,46.94A15,15,0,0,0,.55,175.64L0,497a15,15,0,0,0,24,12L281.05,316.63a15,15,0,0,0,6-12V227.41l54.59-109.3A15,15,0,0,0,334.94,98ZM30.54,183.06l50.39-38.78L162,185.18l95,47.93v64L56.77,447,120.9,318.73A47.19,47.19,0,1,0,94.07,305.3l-64,127.94Zm79.79,89a17.13,17.13,0,1,1,17.13,17.13A17.15,17.15,0,0,1,110.33,272.07Zm197.78-154L265.38,203.7,99.41,120l42.74-84.89Z"/></g></g></svg>