<?xml version="1.0" encoding="UTF-8"?>
<!DOCTYPE svg PUBLIC "-//W3C//DTD SVG 1.1//EN" "http://www.w3.org/Graphics/SVG/1.1/DTD/svg11.dtd">
<!-- Creator: CorelDRAW X8 -->
<svg xmlns="http://www.w3.org/2000/svg" xml:space="preserve" width="110px" version="1.1" style="shape-rendering:geometricPrecision; text-rendering:geometricPrecision; image-rendering:optimizeQuality; fill-rule:evenodd; clip-rule:evenodd"
viewBox="0 0 9463 9463"
 xmlns:xlink="http://www.w3.org/1999/xlink">
 <defs>
  <style type="text/css">
   <![CDATA[
    .fil0 {fill:#013a51}
   ]]>
  </style>
 </defs>
 <g id="Слой_x0020_1">
  <metadata id="CorelCorpID_0Corel-Layer"/>
  <path class="fil0" d="M9463 4842l0 -1193c0,-161 -52,-312 -143,-434 -91,-122 -220,-215 -375,-261l-1023 -307 0 -289 19 -14c137,-95 249,-222 327,-371 74,-142 116,-304 116,-476l0 -463c0,-285 -116,-543 -303,-731 -187,-187 -446,-303 -731,-303 -285,0 -544,116 -731,303 -187,188 -303,446 -303,731l0 462c0,173 42,335 116,477 78,149 190,276 327,371l19 13 0 290 -929 278 -18 -16c-160,-144 -343,-255 -540,-330 -195,-75 -405,-114 -620,-114 -212,0 -414,38 -602,107 -194,72 -373,178 -528,311l-19 15 -837 -251 0 -289 19 -14c136,-95 249,-222 326,-371 75,-142 117,-304 117,-476l0 -463c0,-285 -116,-543 -303,-731 -188,-187 -446,-303 -731,-303 -286,0 -544,116 -731,303 -188,188 -304,446 -304,731l0 462c0,173 42,335 117,477 78,149 190,276 327,371l18 13 0 290 -1023 307c-154,46 -284,139 -374,261 -91,122 -143,273 -143,434l0 1193 220 0 0 -1193c0,-112 37,-217 100,-302 63,-85 153,-150 261,-182l1021 -307 18 24c43,56 105,122 187,175 81,52 183,90 306,90 122,0 224,-38 305,-90 83,-53 145,-119 187,-175l19 -24 722 217 -40 51c-99,124 -181,263 -244,411 -60,145 -102,300 -121,462l-12 93 -64 -68c-96,-103 -213,-186 -344,-243 -125,-54 -263,-84 -408,-84 -286,0 -544,116 -731,303 -188,188 -304,446 -304,731l0 462c0,173 42,335 117,477 78,148 190,276 327,371l18 13 0 290 -1023 306c-154,47 -284,140 -374,262 -91,122 -143,272 -143,434l0 1346 1805 0c54,0 103,23 139,58l0 1c36,35 59,85 59,139l0 573 5457 0 0 -573c0,-54 22,-104 58,-140 36,-35 86,-58 140,-58l1805 0 0 -1346c0,-162 -52,-312 -143,-434 -91,-122 -220,-215 -375,-261l-1023 -307 0 -290 19 -13c137,-95 249,-222 327,-371 74,-142 116,-304 116,-476l0 -463c0,-285 -116,-543 -303,-731 -187,-187 -446,-303 -731,-303 -142,0 -277,29 -400,81 -128,54 -243,133 -339,231l-75 77 0 -254c0,-143 -39,-279 -107,-396 -70,-119 -171,-219 -294,-288l-90 -51 794 -238 18 24c43,55 105,121 187,174 82,52 183,90 306,90 123,0 224,-38 306,-90 82,-53 144,-119 187,-175l18 -24 1021 307c107,32 198,97 261,182 63,85 99,190 99,302l0 1193 221 0zm-7350 -4622c224,0 428,92 575,239 147,147 239,351 239,575l0 44 -751 0 0 0c-54,0 -108,-11 -159,-32 -50,-20 -96,-51 -134,-90l-1 0 -77 -77 -78 77 0 0c-39,39 -85,70 -135,90 -51,21 -105,32 -159,32l-134 0 0 -44c0,-224 91,-428 238,-575 148,-147 351,-239 576,-239zm-814 1276l0 -197 134 0c63,0 124,-9 182,-27 59,-17 114,-43 166,-77l24 -15 24 15c51,34 106,60 165,77 58,18 120,27 182,27l751 0 0 197c0,225 -92,428 -239,576 -147,147 -351,239 -575,239 -225,0 -428,-92 -576,-239 -147,-148 -238,-351 -238,-576zm814 1431c-94,0 -171,-39 -229,-86 -56,-46 -95,-99 -116,-131l-7 -11 0 -228 56 16c48,15 97,26 147,33 48,7 98,11 149,11 50,0 100,-4 149,-11 50,-7 99,-18 146,-33l57 -17 0 229 -8 11c-20,32 -60,86 -116,131 -58,47 -135,86 -228,86zm4275 2644c37,95 88,183 151,262l0 0c63,80 137,150 220,208l19 13 0 290 -1023 307c-16,4 -31,10 -45,15 -14,5 -29,12 -45,19l-13 6 -194 -45 0 -359 16 -13c80,-64 151,-139 212,-221 60,-81 111,-171 149,-267l10 -25 27 -2c84,-7 165,-29 240,-63 75,-35 144,-82 204,-141l47 -46 25 62zm-1657 965c78,0 154,-8 227,-22 76,-15 149,-37 219,-66l60 -24 0 255 -506 379 -506 -379 0 -255 61 24c70,29 143,51 219,66 73,14 149,22 226,22zm-625 329l428 321 -496 297 -118 -591 170 -39 16 12zm455 1211l380 0 129 1166 -678 0 130 -1166 39 0zm367 -220l-425 0 -110 -329 338 -203 338 203 -109 329 -32 0zm53 -709l392 -294 169 39 -118 591 -495 -297 52 -39zm1127 -1700c-7,5 -13,9 -20,13 -37,24 -76,42 -117,56l-65 22 7 -68c3,-20 4,-40 5,-61 1,-19 2,-39 2,-62l0 -800 59 22c92,35 171,93 230,167 57,72 95,158 104,253 7,73 -1,144 -23,210 -22,66 -57,127 -106,181l-76 67zm-409 -100c0,267 -108,509 -283,685 -176,175 -418,284 -685,284 -267,0 -509,-109 -684,-284 -175,-176 -284,-418 -284,-685l0 -814 567 0c164,0 326,-20 482,-60 157,-40 309,-100 451,-178l40 -22 130 260 266 0 0 814zm-2207 169c-41,-14 -80,-32 -117,-56 -35,-22 -68,-49 -96,-80 -49,-54 -85,-115 -107,-181 -21,-66 -29,-137 -22,-210 9,-94 46,-181 104,-253 58,-74 138,-132 230,-167l59 -22 0 800c0,23 0,43 1,62 2,21 3,41 5,61 2,20 1,45 1,66l-58 -20zm136 271c38,95 88,185 148,266 61,82 133,157 213,221l16 13 0 359 -194 45 -13 -6c-16,-7 -31,-14 -45,-19 -15,-6 -30,-11 -45,-15l0 0 -1023 -307 0 -290 19 -13c83,-58 157,-128 220,-208l0 0c62,-79 113,-167 151,-262l24 -62 47 46c60,59 129,106 204,141 61,27 126,47 193,57l41 14 44 20zm-1515 -1870c224,0 428,91 575,239 147,147 239,351 239,575l0 44 -134 0c-55,0 -109,-11 -159,-32 -51,-21 -97,-51 -135,-90l0 0 -78 -77 -78 77 0 0c-39,39 -85,69 -135,90 -50,21 -105,32 -159,32l-750 0 0 -44c0,-224 91,-428 238,-575 148,-148 351,-239 576,-239zm-814 1276l0 -197 750 0 0 -1c63,0 124,-8 182,-26 59,-17 115,-43 166,-77l24 -15 24 15c51,34 107,60 165,77 58,18 120,26 183,26l134 0 0 198c0,225 -92,428 -239,576 -147,147 -351,239 -575,239 -225,0 -428,-92 -576,-239 -147,-148 -238,-351 -238,-576zm814 1035c50,0 100,-4 149,-11 50,-7 99,-19 146,-33l57 -17 0 229 -8 11c-20,32 -60,86 -116,131 -58,47 -135,86 -228,86 -94,0 -171,-39 -229,-86 -56,-46 -95,-99 -116,-131l-7 -11 0 -228 56 16c48,15 97,26 147,33 48,7 98,11 149,11zm-414 2244l-555 0 0 -1078 -220 0 0 1078 -704 0 0 -1126c0,-112 37,-217 100,-302 63,-85 153,-150 261,-182l1021 -307 18 24c43,56 105,122 187,175 81,52 183,90 306,90 122,0 224,-38 305,-90 83,-53 145,-119 187,-175l19 -24 771 232 -591 136c-236,55 -436,186 -578,363 -141,178 -223,403 -223,645l0 145 220 0 0 -145c0,-190 65,-367 176,-507 111,-140 269,-243 455,-286l851 -197 179 892 315 -189c38,111 75,223 112,334 -47,422 -94,843 -140,1264l-870 0 0 -1232 -220 0 0 1232 -858 0 0 -352c0,-115 -47,-219 -123,-295 -76,-76 -180,-123 -295,-123l-106 0zm7183 -1610c107,32 198,97 261,182 63,85 99,190 99,302l0 1126 -704 0 0 -1078 -220 0 0 1078 -660 0 0 0c-115,0 -220,47 -295,123 -76,76 -123,180 -123,295l0 352 -858 0 0 -1232 -220 0 0 1232 -870 0c-47,-421 -93,-842 -140,-1264l111 -334 316 189 178 -892 852 197c185,43 343,146 455,286 111,140 176,317 176,507l0 145 220 0 0 -145c0,-242 -82,-467 -224,-645 -141,-177 -342,-308 -578,-363l-590 -136 771 -232 18 24c43,56 105,122 187,175 82,52 183,90 306,90 123,0 224,-38 306,-90 82,-53 144,-119 187,-175l18 -24 1021 307zm-1187 -455c-21,32 -60,85 -116,131 -59,47 -135,86 -229,86 -94,0 -170,-39 -229,-86 -56,-46 -95,-99 -116,-131l-7 -11 0 -229 56 17c48,14 97,26 147,33 48,7 98,11 149,11 51,0 100,-4 149,-11 50,-7 99,-19 147,-33l56 -17 0 229 -7 11zm-345 -399c-224,0 -428,-92 -575,-239 -148,-148 -239,-351 -239,-576l0 -197 134 0 0 -1c63,0 124,-8 182,-26 59,-17 115,-43 166,-77l24 -15 24 15c51,34 107,60 165,77 59,18 120,26 183,26l750 0 0 198c0,225 -91,428 -239,576 -137,138 -324,226 -531,237l0 2 -44 0zm0 -2091c224,0 428,91 575,239 148,147 239,351 239,575l0 44 -750 0c-55,0 -109,-11 -159,-32 -50,-21 -96,-51 -135,-90l0 0 -78 -77 -78 77 0 0c-39,39 -85,69 -135,90 -50,21 -104,32 -159,32l-134 0 0 -44c0,-224 91,-428 239,-575 147,-148 351,-239 575,-239zm-1105 554c-66,-50 -140,-90 -220,-118 -76,-26 -158,-40 -242,-40l-213 0 -180 -359 -104 70c-142,94 -296,167 -456,215 -161,49 -329,74 -500,74l-650 0c-85,0 -166,14 -242,40 -80,28 -154,68 -221,118l-70 54 0 -317c0,-420 171,-800 447,-1076 276,-276 657,-447 1077,-447 203,0 400,40 583,115 183,76 350,187 494,331l156 156 25 9c115,38 212,111 280,205 68,95 107,209 107,331l0 693 -71 -54zm1105 -4251c224,0 428,92 575,239 148,147 239,351 239,575l0 44 -134 0 0 0c-55,0 -109,-11 -159,-32 -50,-20 -96,-51 -135,-90l0 0 -78 -77 -78 77 0 0c-39,39 -85,70 -135,90 -50,21 -104,32 -159,32l-750 0 0 -44c0,-224 91,-428 239,-575 147,-147 351,-239 575,-239zm-814 1276l0 -197 750 0c63,0 124,-9 182,-27 59,-17 115,-43 166,-77l24 -15 24 15c51,34 107,60 166,77 58,18 119,27 182,27l134 0 0 197c0,225 -91,428 -239,576 -147,147 -351,239 -575,239 -224,0 -428,-92 -575,-239 -148,-148 -239,-351 -239,-576zm814 1431c-94,0 -170,-39 -229,-86 -56,-46 -95,-99 -116,-131l-7 -11 0 -229 56 17c48,15 97,26 147,33 48,7 98,11 149,11 51,0 100,-4 149,-11 50,-7 99,-18 147,-33l56 -17 0 229 -7 11c-21,32 -60,86 -116,131 -59,47 -135,86 -229,86zm-3587 -2927l-220 0 0 220 220 0 0 -220zm0 616l-220 0 0 1607 220 0 0 -1607zm2157 -616l-221 0 0 220 221 0 0 -220zm0 616l-221 0 0 1607 221 0 0 -1607zm-1541 0l-220 0 0 991 220 0 0 -991zm0 1387l-220 0 0 220 220 0 0 -220zm925 -1387l-221 0 0 991 221 0 0 -991zm0 1387l-221 0 0 220 221 0 0 -220z"/>
 </g>
</svg>
