<?xml version="1.0" encoding="UTF-8"?>
<!DOCTYPE svg PUBLIC "-//W3C//DTD SVG 1.1//EN" "http://www.w3.org/Graphics/SVG/1.1/DTD/svg11.dtd">
<!-- Creator: CorelDRAW X8 -->
<svg xmlns="http://www.w3.org/2000/svg" xml:space="preserve" width="122.491mm" height="21.023mm" version="1.1" style="shape-rendering:geometricPrecision; text-rendering:geometricPrecision; image-rendering:optimizeQuality; fill-rule:evenodd; clip-rule:evenodd"
viewBox="0 0 10664 1830"
 xmlns:xlink="http://www.w3.org/1999/xlink">
 <defs>
  <style type="text/css">
   <![CDATA[
    .fil2 {fill:none;fill-rule:nonzero}
    .fil0 {fill:#393939;fill-rule:nonzero}
    .fil1 {fill:#879299;fill-rule:nonzero}
   ]]>
  </style>
 </defs>
 <g id="Слой_x0020_1">
  <metadata id="CorelCorpID_0Corel-Layer"/>
  <g id="_682851872">
   <path class="fil0" d="M3092 1538c12,3 34,4 52,4 95,0 149,-69 149,-167l0 -309 148 0 0 472 111 0 0 -559 -371 0 0 399c0,57 -36,92 -89,92l0 68z"/>
   <polygon id="1" class="fil0" points="3632,1538 3740,1538 3740,979 3632,979 "/>
   <path id="2" class="fil0" d="M4215 1538l0 119 100 0 0 -207 -60 0 0 -471 -371 0 0 351c0,77 -35,124 -88,124l0 203 100 0 0 -119 319 0zm-219 -208l0 -264 147 0 0 384 -186 0c28,-32 39,-76 39,-120z"/>
   <polygon id="3" class="fil0" points="4479,1066 4678,1066 4678,979 4371,979 4371,1538 4682,1538 4682,1450 4479,1450 4479,1302 4654,1302 4654,1214 4479,1214 "/>
   <path id="4" class="fil0" d="M4750 1538l112 0 0 -224 60 0c109,0 183,-65 183,-168 0,-102 -74,-167 -183,-167l-172 0 0 559zm243 -392c0,46 -29,76 -71,76l-60 0 0 -152 60 0c42,0 71,31 71,76z"/>
   <path id="5" class="fil0" d="M5268 1258c0,-113 75,-192 182,-192 56,0 102,20 134,52l68 -68c-51,-50 -122,-79 -208,-79 -171,0 -287,116 -287,287 0,171 116,288 287,288 86,0 157,-30 208,-80l-68 -67c-33,32 -78,51 -134,51 -107,0 -182,-79 -182,-192z"/>
   <path id="6" class="fil0" d="M5716 1538l179 0c110,0 183,-66 183,-168 0,-102 -73,-168 -183,-168l-68 0 0 -223 -111 0 0 559zm250 -168c0,45 -28,76 -71,76l-68 0 0 -152 68 0c43,0 71,30 71,76z"/>
   <polygon id="7" class="fil0" points="6465,1538 6604,1538 6383,1249 6584,979 6449,979 6258,1236 6258,979 6150,979 6150,1538 6258,1538 6258,1263 "/>
   <polygon id="8" class="fil0" points="7056,979 6760,1330 6760,979 6652,979 6652,1538 6720,1538 7016,1186 7016,1538 7123,1538 7123,979 "/>
   <path id="9" class="fil0" d="M7439 877c-32,0 -59,-11 -76,-29l-50 50c31,33 74,53 126,53 52,0 95,-19 126,-52l-50 -51c-17,19 -44,29 -76,29zm167 102l-295 351 0 -351 -108 0 0 559 68 0 296 -352 0 352 107 0 0 -559 -68 0z"/>
   <path id="10" class="fil0" d="M8170 1538l108 0 0 -52c144,0 240,-93 240,-228 0,-135 -96,-227 -240,-227l0 -52 -108 0 0 52c-143,0 -240,92 -240,227 0,135 97,228 240,228l0 52zm108 -412c77,0 129,54 129,132 0,78 -52,132 -129,132l0 -264zm-108 264c-76,0 -128,-54 -128,-132 0,-78 52,-132 128,-132l0 264z"/>
   <path id="11" class="fil0" d="M8582 1258c0,171 117,288 288,288 171,0 287,-117 287,-288 0,-171 -116,-287 -287,-287 -171,0 -288,116 -288,287zm112 0c0,-113 72,-192 176,-192 104,0 175,79 175,192 0,113 -71,192 -175,192 -104,0 -176,-79 -176,-192z"/>
   <path id="12" class="fil0" d="M9229 1538l112 0 0 -224 60 0c109,0 183,-65 183,-168 0,-102 -74,-167 -183,-167l-172 0 0 559zm243 -392c0,46 -29,76 -71,76l-60 0 0 -152 60 0c42,0 71,31 71,76z"/>
   <polygon id="13" class="fil0" points="10069,979 9953,979 9831,1236 9707,979 9592,979 9781,1362 9682,1538 9798,1538 "/>
   <polygon id="14" class="fil0" points="10556,1538 10664,1538 10664,979 10584,979 10389,1267 10193,979 10113,979 10113,1538 10221,1538 10221,1197 10370,1426 10407,1426 10556,1197 "/>
   <path class="fil0" d="M3186 440c0,-74 49,-125 120,-125 36,0 67,13 87,35l21 -20c-26,-28 -65,-44 -110,-44 -90,0 -151,63 -151,154 0,91 61,153 151,153 45,0 84,-16 110,-43l-21 -20c-21,21 -51,34 -87,34 -71,0 -120,-50 -120,-124z"/>
   <polygon id="1" class="fil0" points="3835,590 3877,590 3758,438 3873,289 3832,289 3735,416 3638,289 3596,289 3711,438 3593,590 3635,590 3735,460 "/>
   <polygon id="2" class="fil0" points="4076,590 4109,590 4109,289 4076,289 "/>
   <path id="3" class="fil0" d="M4542 590l0 65 30 0 0 -92 -31 0 0 -274 -181 0 0 208c0,45 -19,67 -49,67l0 91 30 0 0 -65 201 0zm-149 -92l0 -182 115 0 0 247 -138 0c16,-14 23,-37 23,-65z"/>
   <polygon id="4" class="fil0" points="4808,289 4775,289 4775,590 4808,590 4808,452 4974,452 4974,590 5007,590 5007,289 4974,289 4974,425 4808,425 "/>
   <path id="5" class="fil0" d="M5216 440c0,91 61,153 152,153 89,0 151,-62 151,-153 0,-91 -62,-154 -151,-154 -91,0 -152,63 -152,154zm33 0c0,-74 49,-125 119,-125 70,0 117,51 117,125 0,74 -47,124 -117,124 -70,0 -119,-50 -119,-124z"/>
   <path id="6" class="fil0" d="M5870 315c37,0 67,13 88,35l21 -20c-27,-28 -65,-44 -110,-44 -91,0 -152,63 -152,154 0,91 61,153 152,153 45,0 83,-16 110,-43l-21 -20c-21,21 -51,34 -88,34 -67,0 -114,-45 -119,-112l179 0 0 -27 -179 0c6,-66 53,-110 119,-110z"/>
   <path id="7" class="fil0" d="M6184 590l93 0c51,0 85,-32 85,-83 0,-37 -20,-65 -51,-75 22,-13 35,-35 35,-65 0,-48 -32,-78 -80,-78l-82 0 0 301zm146 -85c0,34 -22,57 -54,57l-59 0 0 -113 59 0c32,0 54,22 54,56zm-16 -136c0,31 -20,52 -50,52l-47 0 0 -103 47 0c30,0 50,20 50,51z"/>
   <path id="8" class="fil0" d="M6573 590l33 0 0 -133 48 0c52,0 88,-32 88,-84 0,-51 -36,-84 -88,-84l-81 0 0 301zm135 -217c0,34 -22,56 -54,56l-48 0 0 -111 48 0c32,0 54,22 54,55z"/>
   <path id="9" class="fil0" d="M6933 440c0,91 62,153 152,153 90,0 151,-62 151,-153 0,-91 -61,-154 -151,-154 -90,0 -152,63 -152,154zm34 0c0,-74 48,-125 118,-125 70,0 118,51 118,125 0,74 -48,124 -118,124 -70,0 -118,-50 -118,-124z"/>
   <polygon id="10" class="fil0" points="7446,289 7446,590 7478,590 7478,316 7632,316 7632,590 7664,590 7664,289 "/>
   <polygon id="11" class="fil0" points="7917,316 8043,316 8043,289 7885,289 7885,590 8046,590 8046,563 7917,563 7917,452 8030,452 8030,425 7917,425 "/>
   <path id="12" class="fil0" d="M8373 243c-19,0 -33,-7 -44,-18l-17 16c16,16 36,26 61,26 25,0 45,-10 60,-26l-16 -16c-11,11 -26,18 -44,18zm97 46l-184 240 0 -240 -32 0 0 301 22 0 183 -240 0 240 33 0 0 -301 -22 0z"/>
   <path id="13" class="fil0" d="M8735 440c0,-74 48,-125 119,-125 37,0 67,13 88,35l21 -20c-27,-28 -65,-44 -110,-44 -90,0 -152,63 -152,154 0,91 62,153 152,153 45,0 83,-16 110,-43l-21 -20c-21,21 -51,34 -88,34 -71,0 -119,-50 -119,-124z"/>
   <path id="14" class="fil0" d="M9168 590l85 0c52,0 88,-33 88,-84 0,-51 -36,-84 -88,-84l-52 0 0 -133 -33 0 0 301zm139 -84c0,33 -21,56 -54,56l-52 0 0 -112 52 0c33,0 54,22 54,56z"/>
   <path id="15" class="fil0" d="M9549 590l33 0 0 -301 -33 0 0 301zm170 0l41 0 -133 -154 124 -147 -41 0 -124 147 133 154z"/>
   <polygon id="16" class="fil0" points="10177,289 9994,529 9994,289 9961,289 9961,590 9983,590 10167,350 10167,590 10200,590 10200,289 "/>
   <path id="17" class="fil0" d="M10539 243c-19,0 -33,-7 -44,-18l-17 16c16,16 36,26 61,26 25,0 45,-10 60,-26l-16 -16c-11,11 -26,18 -44,18zm97 46l-184 240 0 -240 -32 0 0 301 22 0 183 -240 0 240 33 0 0 -301 -22 0z"/>
  </g>
  <g id="_682852992">
   <polygon class="fil1" points="1590,689 1596,686 1597,681 1606,683 1610,684 1611,680 1616,677 1622,674 1614,667 1599,672 1597,662 1591,665 1590,670 1589,675 1579,676 1583,677 1588,679 1591,684 "/>
   <polygon class="fil1" points="1607,660 1609,651 1605,650 1600,649 1601,645 1606,646 1611,643 1619,650 1618,653 1612,657 "/>
   <polygon class="fil1" points="1673,715 1672,715 1669,710 1669,709 "/>
   <polygon class="fil1" points="1686,718 1685,718 1679,712 1679,712 "/>
   <polygon class="fil1" points="1692,730 1692,730 1688,724 1689,719 1690,720 1689,724 "/>
   <polygon class="fil1" points="1705,733 1703,733 "/>
   <polygon class="fil1" points="1707,743 1707,743 1705,733 1705,733 "/>
   <polygon class="fil1" points="1727,744 1726,743 1727,739 1728,739 "/>
   <polygon class="fil1" points="1681,825 1681,825 1689,827 "/>
   <polygon class="fil1" points="1628,778 1628,778 1638,776 1638,776 "/>
   <polygon class="fil1" points="1607,768 1615,770 1615,770 "/>
   <polygon class="fil1" points="1576,764 1588,768 1591,768 1588,768 "/>
   <polygon class="fil1" points="1560,765 1560,765 1567,762 1570,763 1566,762 "/>
   <polygon class="fil1" points="1592,769 1593,769 1603,767 1602,766 "/>
   <polygon class="fil1" points="603,1226 608,1227 "/>
   <polygon class="fil1" points="341,940 336,939 335,943 340,944 "/>
   <polygon class="fil1" points="250,1176 247,1175 247,1175 250,1176 "/>
   <polygon class="fil1" points="261,1174 257,1173 252,1172 252,1172 256,1173 260,1174 "/>
   <polygon class="fil1" points="270,1172 267,1171 266,1171 270,1172 "/>
   <polygon class="fil1" points="266,1156 266,1156 266,1156 "/>
   <polygon class="fil1" points="282,1146 278,1145 277,1146 277,1146 282,1147 "/>
   <polygon class="fil1" points="310,1111 307,1110 299,1103 298,1104 305,1110 310,1111 "/>
   <polygon class="fil1" points="339,1090 335,1089 331,1088 331,1089 335,1090 339,1091 "/>
   <polygon class="fil1" points="367,1055 364,1054 363,1055 367,1056 "/>
   <polygon class="fil1" points="378,1053 374,1052 369,1051 369,1051 373,1052 377,1053 "/>
   <polygon class="fil1" points="387,1051 384,1050 379,1049 379,1049 383,1050 387,1051 "/>
   <polygon class="fil1" points="393,1048 389,1046 389,1047 393,1048 "/>
   <polygon class="fil1" points="336,976 337,976 338,973 337,972 "/>
   <polygon class="fil1" points="374,1013 374,1014 375,1011 374,1010 "/>
   <polygon class="fil1" points="653,1330 654,1326 649,1325 647,1315 643,1314 634,1311 635,1307 640,1308 644,1309 653,1311 654,1307 660,1304 663,1309 662,1314 665,1319 670,1321 674,1322 668,1325 664,1324 663,1328 657,1331 "/>
   <polygon class="fil1" points="705,1330 702,1324 697,1323 694,1317 695,1313 700,1314 703,1320 708,1321 712,1322 711,1327 710,1331 "/>
   <polygon class="fil1" points="579,1321 584,1322 585,1317 591,1314 586,1313 582,1312 581,1316 572,1314 570,1318 569,1323 "/>
   <polygon class="fil1" points="621,1122 621,1123 621,1122 "/>
   <polygon class="fil1" points="593,1087 599,1097 599,1097 595,1092 "/>
   <polygon class="fil1" points="673,890 682,892 "/>
   <polygon class="fil1" points="685,808 690,805 "/>
   <polygon class="fil1" points="725,470 730,471 "/>
   <polygon class="fil1" points="659,490 663,492 "/>
   <polygon class="fil1" points="596,568 600,570 "/>
   <polygon class="fil1" points="591,567 596,568 "/>
   <polygon class="fil1" points="597,583 582,584 586,585 "/>
   <polygon class="fil1" points="752,553 753,548 748,547 "/>
   <polygon class="fil1" points="730,523 736,520 736,521 731,524 "/>
   <polygon class="fil1" points="732,500 731,500 728,495 724,494 724,493 729,495 "/>
   <polygon class="fil1" points="762,489 758,488 750,486 750,486 759,488 763,489 760,484 764,485 769,486 775,483 772,478 768,472 767,476 763,475 758,474 753,473 746,466 740,469 731,467 725,470 720,474 706,474 709,480 717,487 721,488 716,491 707,489 706,493 704,498 694,500 691,494 683,488 685,483 681,478 678,472 669,469 662,477 658,476 661,482 660,486 659,490 653,494 648,497 643,496 638,499 639,509 638,513 643,515 641,523 646,520 655,523 659,524 658,528 653,532 648,530 634,531 622,538 613,535 617,541 617,541 617,541 627,539 630,544 635,545 639,547 642,553 638,551 629,549 626,543 621,542 617,541 617,541 612,540 611,544 598,541 594,540 588,543 587,547 591,548 600,551 604,557 599,555 594,554 590,553 584,556 579,560 582,565 588,562 591,567 586,571 584,575 589,576 593,577 583,580 597,583 595,587 594,592 604,590 608,591 612,596 621,599 626,595 630,601 638,603 640,599 644,600 650,597 649,601 653,602 659,599 663,601 672,603 681,605 689,607 693,613 703,611 709,608 710,603 715,604 720,601 721,597 726,598 727,594 728,589 729,585 735,581 736,577 737,572 742,569 745,560 746,556 752,553 757,549 757,549 762,546 767,543 772,544 776,545 778,536 784,533 783,538 782,542 786,543 787,539 789,534 786,529 780,532 777,526 782,523 787,524 788,520 789,515 787,505 788,501 789,496 785,495 780,494 776,493 777,489 772,487 767,490 "/>
   <polygon class="fil1" points="913,1334 910,1333 909,1328 910,1324 907,1319 906,1313 910,1312 910,1310 911,1305 910,1301 911,1296 913,1292 913,1287 917,1285 922,1281 927,1281 930,1278 932,1278 937,1279 942,1278 946,1280 947,1280 948,1282 949,1287 948,1292 947,1296 944,1305 939,1308 933,1311 932,1316 931,1320 924,1328 923,1332 917,1336 916,1340 "/>
   <polygon class="fil1" points="867,1346 870,1352 876,1349 885,1351 889,1352 895,1349 899,1350 904,1351 905,1347 909,1348 915,1345 914,1349 917,1354 920,1360 916,1359 919,1365 918,1369 923,1370 921,1375 914,1383 919,1384 918,1388 912,1391 908,1390 907,1394 906,1399 904,1403 903,1408 902,1412 895,1420 893,1429 890,1438 889,1442 884,1445 880,1440 876,1439 869,1432 863,1435 861,1439 860,1444 856,1443 851,1442 844,1435 845,1431 846,1426 843,1420 850,1413 846,1407 851,1408 856,1405 857,1401 858,1396 864,1393 870,1389 861,1387 857,1386 859,1377 860,1373 858,1363 859,1358 860,1354 866,1351 "/>
   <polygon class="fil1" points="1100,1563 1099,1568 1098,1572 1091,1580 1087,1579 1081,1582 1080,1587 1079,1591 1077,1595 1072,1599 1071,1603 1069,1608 1074,1609 1068,1612 1073,1613 1070,1622 1060,1624 1058,1633 1050,1626 1044,1629 1037,1623 1035,1613 1036,1608 1028,1601 1019,1599 1016,1594 1007,1592 1005,1581 1002,1576 990,1568 986,1562 982,1561 974,1554 970,1549 972,1544 978,1541 980,1532 984,1533 990,1530 993,1535 992,1540 1002,1538 1011,1540 1014,1546 1022,1552 1030,1559 1039,1562 1049,1560 1053,1561 1058,1562 1062,1563 1068,1560 1072,1561 1075,1566 1081,1563 1090,1566 "/>
   <polygon class="fil1" points="784,610 780,608 776,607 778,599 782,600 786,601 790,607 "/>
   <polygon class="fil1" points="788,767 793,768 797,770 799,765 794,764 785,761 "/>
   <polygon class="fil1" points="852,386 859,378 865,375 868,381 867,386 872,382 873,378 879,374 884,375 885,371 890,368 891,363 886,367 882,365 873,363 871,372 867,366 868,362 863,365 862,369 854,377 853,382 "/>
   <polygon class="fil1" points="800,567 806,563 812,560 815,566 814,570 803,572 "/>
   <polygon class="fil1" points="861,408 862,404 863,399 853,401 852,406 851,410 "/>
   <polygon class="fil1" points="863,418 864,414 866,409 871,406 872,402 867,405 861,408 854,416 857,421 856,426 "/>
   <polygon class="fil1" points="838,459 839,455 "/>
   <polygon class="fil1" points="786,689 783,688 783,687 786,688 "/>
   <polygon class="fil1" points="743,678 748,679 "/>
   <polygon class="fil1" points="893,552 893,552 892,555 892,555 "/>
   <polygon class="fil1" points="905,551 903,550 906,555 907,554 "/>
   <polygon class="fil1" points="909,438 913,439 "/>
   <polygon class="fil1" points="875,420 871,419 "/>
   <polygon class="fil1" points="868,558 868,555 863,558 858,557 855,552 851,551 849,555 845,554 846,549 836,552 837,547 834,541 828,545 827,549 826,554 823,548 824,544 821,538 816,537 815,541 814,546 809,544 810,540 813,531 814,527 818,528 820,523 824,524 830,521 831,517 835,518 841,515 847,511 852,508 853,504 858,505 859,501 854,500 851,494 847,493 842,491 844,487 848,488 854,485 855,480 851,475 847,474 840,482 835,485 836,480 837,476 844,468 849,465 854,466 858,467 859,463 855,462 861,458 866,455 872,452 867,451 862,454 857,453 851,461 847,455 845,451 844,456 839,455 834,453 840,450 841,448 841,445 837,444 841,448 845,451 844,449 854,447 855,443 856,438 862,435 866,436 868,432 869,427 878,430 879,425 875,420 876,415 878,411 879,407 885,403 889,404 893,405 892,410 896,411 900,417 901,412 902,408 899,402 904,399 909,400 906,394 913,402 919,398 915,397 922,389 923,385 927,386 935,392 931,391 933,397 939,394 938,398 946,405 956,403 955,407 959,408 963,410 967,416 961,418 960,423 951,420 946,424 940,427 935,426 931,425 925,428 924,433 920,432 910,433 909,438 908,442 907,447 911,448 921,446 925,447 934,449 939,450 948,453 952,454 955,460 954,464 958,465 963,466 967,468 966,472 965,477 960,480 955,478 954,483 950,482 944,485 947,491 946,495 940,498 930,500 929,505 925,504 919,507 916,501 911,500 903,498 902,502 906,503 909,509 913,510 908,514 899,511 898,516 893,514 889,513 886,508 881,507 880,511 884,512 888,518 892,519 901,521 905,522 909,528 912,533 914,543 915,542 917,552 920,558 914,565 912,570 911,574 915,580 913,584 908,587 907,592 904,601 903,605 908,606 911,612 915,613 914,617 917,623 916,628 915,632 914,636 908,659 905,653 900,652 896,651 895,655 899,656 907,663 906,667 909,673 908,677 907,682 906,686 900,689 894,693 890,692 889,696 887,700 891,706 896,703 901,704 907,701 910,706 919,709 926,715 930,721 928,730 927,735 919,742 918,747 913,749 907,753 903,752 898,751 897,755 893,754 888,753 884,752 878,755 883,756 881,760 876,764 872,758 868,757 864,756 863,760 866,766 869,771 873,773 877,778 883,775 887,776 890,782 885,785 879,788 874,787 869,790 863,793 860,788 856,787 845,789 842,783 838,782 834,776 830,775 826,774 821,773 812,770 813,766 809,765 804,764 801,758 798,753 792,756 791,760 782,758 779,752 770,750 764,754 760,752 761,748 758,742 755,737 750,735 746,734 741,733 737,732 734,726 728,730 727,734 725,739 720,742 711,740 708,734 709,729 700,727 692,720 682,722 677,726 678,721 673,720 672,725 668,723 663,722 666,713 661,712 657,711 666,713 676,711 680,712 681,708 696,707 705,709 711,702 713,697 717,698 721,704 726,701 723,695 727,696 731,698 736,699 735,703 739,704 743,710 747,711 752,712 760,714 765,716 766,711 772,708 776,709 781,710 786,707 792,704 787,703 780,701 780,702 774,705 770,703 761,701 757,700 753,695 750,689 755,686 751,684 742,682 743,678 744,673 745,669 741,667 737,666 731,670 722,667 723,663 728,664 729,660 724,659 715,656 721,653 722,649 728,645 731,651 736,652 740,653 744,654 750,651 753,657 759,653 765,650 769,651 774,648 772,643 776,644 777,639 778,635 784,631 785,627 780,626 775,629 772,624 766,627 761,626 763,621 767,622 773,619 781,621 787,618 792,619 806,619 805,623 810,624 814,625 813,630 815,634 820,631 819,635 824,637 829,633 825,632 826,628 827,623 823,622 824,618 829,614 834,616 835,611 836,607 841,608 842,603 851,606 852,601 844,594 840,593 840,593 834,596 840,593 845,590 841,589 838,583 839,579 841,570 842,566 848,562 853,559 857,565 858,560 862,562 "/>
   <polygon class="fil1" points="894,1188 897,1189 906,1192 907,1193 899,1191 894,1189 "/>
   <polygon class="fil1" points="896,1141 900,1143 901,1144 896,1143 "/>
   <polygon class="fil1" points="893,1137 894,1138 893,1137 "/>
   <polygon class="fil1" points="1021,1118 1022,1114 1022,1113 1021,1118 "/>
   <polygon class="fil1" points="1040,1119 1040,1119 1043,1123 1043,1123 "/>
   <polygon class="fil1" points="976,1036 979,1042 980,1041 977,1036 "/>
   <polygon class="fil1" points="963,1033 966,1038 970,1044 970,1043 967,1038 963,1032 "/>
   <polygon class="fil1" points="931,1067 930,1066 929,1071 924,1070 918,1078 908,1079 908,1079 919,1078 925,1070 930,1071 "/>
   <polygon class="fil1" points="928,1080 931,1081 935,1082 932,1081 "/>
   <polygon class="fil1" points="925,1089 927,1089 925,1089 "/>
   <polygon class="fil1" points="929,1103 927,1099 926,1102 "/>
   <polygon class="fil1" points="985,1114 986,1109 987,1105 986,1104 985,1108 984,1112 "/>
   <polygon class="fil1" points="1069,1116 1070,1112 1071,1108 1071,1107 1070,1111 1069,1116 "/>
   <polygon class="fil1" points="1128,1146 1124,1140 1126,1136 1125,1135 1124,1140 1127,1146 "/>
   <polygon class="fil1" points="1155,1160 1153,1157 1153,1157 1155,1160 "/>
   <polygon class="fil1" points="1131,1151 1128,1147 1131,1151 "/>
   <polygon class="fil1" points="1165,1094 1162,1090 1162,1090 1165,1094 "/>
   <polygon class="fil1" points="1166,1109 1164,1105 1164,1104 1166,1109 "/>
   <polygon class="fil1" points="1157,1120 1158,1121 1158,1121 1158,1121 "/>
   <polygon class="fil1" points="1157,1107 1158,1108 1157,1112 1155,1116 1155,1115 1156,1111 "/>
   <polygon class="fil1" points="1091,1085 1092,1086 1091,1089 1090,1089 "/>
   <polygon class="fil1" points="1059,1080 1059,1081 1059,1081 1059,1080 "/>
   <polygon class="fil1" points="1036,1062 1037,1062 1036,1066 1039,1069 1035,1066 "/>
   <polygon class="fil1" points="1029,1055 1029,1055 1028,1059 1027,1059 "/>
   <polygon class="fil1" points="981,1038 984,1042 984,1043 981,1038 "/>
   <polygon class="fil1" points="1024,982 1024,983 1013,989 1007,993 1001,1000 1000,1005 994,1008 993,1012 990,1021 989,1025 983,1029 984,1028 989,1025 990,1021 992,1012 994,1007 1000,1004 1001,1000 1007,992 1013,989 "/>
   <polygon class="fil1" points="1021,977 1021,977 1021,977 "/>
   <polygon class="fil1" points="985,936 987,944 989,954 989,954 987,944 "/>
   <polygon class="fil1" points="1159,777 1167,783 1164,792 1163,782 "/>
   <polygon class="fil1" points="1065,1083 1065,1083 1065,1084 "/>
   <polygon class="fil1" points="1221,656 1219,661 "/>
   <polygon class="fil1" points="1199,650 1197,655 "/>
   <polygon class="fil1" points="1174,725 1174,725 1177,730 1177,729 "/>
   <polygon class="fil1" points="998,882 994,881 994,880 998,881 "/>
   <polygon class="fil1" points="997,886 998,885 997,886 "/>
   <polygon class="fil1" points="949,906 949,907 948,910 948,910 "/>
   <polygon class="fil1" points="947,896 947,897 946,901 946,900 "/>
   <polygon class="fil1" points="936,865 936,865 934,874 933,879 927,882 927,881 933,878 934,873 "/>
   <polygon class="fil1" points="922,847 922,848 921,852 921,851 "/>
   <polygon class="fil1" points="915,836 915,836 914,841 913,844 913,844 914,840 "/>
   <polygon class="fil1" points="907,829 908,830 907,833 906,833 "/>
   <polygon class="fil1" points="981,933 974,929 976,931 "/>
   <polygon class="fil1" points="987,907 987,907 990,913 993,918 994,918 990,912 "/>
   <polygon class="fil1" points="985,897 988,903 987,906 987,906 988,902 989,898 989,898 985,897 "/>
   <polygon class="fil1" points="1086,800 1087,796 1088,792 1089,787 1090,787 1089,791 1087,796 1086,800 "/>
   <polygon class="fil1" points="1076,817 1078,813 1080,804 1081,799 1082,800 1081,804 1078,812 1077,817 "/>
   <polygon class="fil1" points="1066,842 1073,831 1074,826 1071,821 1072,820 1075,826 1074,830 1066,842 "/>
   <polygon class="fil1" points="1014,857 1015,853 1017,844 1018,840 1019,836 1020,835 1019,839 1018,844 1016,853 1014,857 "/>
   <polygon class="fil1" points="982,835 987,832 987,832 982,835 "/>
   <polygon class="fil1" points="1010,762 1012,758 "/>
   <polygon class="fil1" points="1202,639 1203,635 1204,630 1210,627 1214,628 1218,630 1223,631 1227,632 1232,633 1237,630 1242,631 1251,633 1254,639 1257,644 1258,640 1264,637 1270,634 1272,625 1267,624 1268,619 1274,616 1280,613 1276,612 1270,615 1265,614 1261,612 1255,616 1251,614 1245,618 1240,621 1239,626 1233,629 1228,627 1224,626 1211,623 1206,622 1200,625 1199,629 "/>
   <polygon class="fil1" points="1228,736 1224,735 1228,736 1224,735 1215,733 1216,729 1207,726 1209,717 1211,713 1215,714 1217,709 1220,715 1225,712 1229,718 1233,719 1232,723 1231,728 1230,732 "/>
   <polygon class="fil1" points="1256,753 1248,746 1252,747 1253,743 1249,741 1240,739 1237,734 1238,729 1243,726 1240,720 1241,716 1247,713 1251,714 1257,710 1258,706 1263,707 1261,712 1256,715 1259,720 1264,721 1265,717 1266,713 1270,714 1275,715 1280,712 1277,706 1273,705 1278,702 1283,703 1292,705 1286,709 1290,710 1285,713 1287,723 1281,726 1270,733 1273,738 1267,746 1262,745 1257,748 1260,754 "/>
   <polygon class="fil1" points="1237,767 1233,766 1230,760 1226,755 1227,750 1232,751 1236,752 1235,757 1240,758 1243,763 1242,768 "/>
   <polygon class="fil1" points="1248,765 1249,760 1250,756 1253,762 1258,763 1257,767 1252,766 1251,770 "/>
   <polygon class="fil1" points="1297,1119 1296,1119 1296,1119 "/>
   <polygon class="fil1" points="1300,1118 1301,1119 1300,1119 "/>
   <polygon class="fil1" points="1279,1083 1279,1083 1279,1083 "/>
   <polygon class="fil1" points="1262,1073 1262,1073 1265,1078 1264,1078 "/>
   <polygon class="fil1" points="1211,1069 1211,1070 1214,1074 1213,1074 "/>
   <polygon class="fil1" points="1181,982 1182,982 1179,990 1183,996 1186,1002 1184,1010 1182,1015 1186,1020 1188,1030 1190,1040 1193,1046 1198,1047 1198,1048 1197,1047 1193,1046 1190,1040 1188,1030 1186,1020 1182,1015 1183,1010 1185,1001 1183,996 1179,990 "/>
   <polygon class="fil1" points="1177,962 1175,970 1177,980 1175,970 1177,961 "/>
   <polygon class="fil1" points="1222,973 1216,976 1216,976 1222,973 "/>
   <polygon class="fil1" points="1263,961 1253,962 1248,966 1242,969 1226,974 1226,974 1242,969 1247,966 1253,962 1263,960 "/>
   <polygon class="fil1" points="1266,970 1266,970 "/>
   <polygon class="fil1" points="1269,971 1266,970 "/>
   <polygon class="fil1" points="1190,969 1182,971 1190,969 "/>
   <polygon class="fil1" points="1202,977 1202,977 1212,975 1212,975 "/>
   <polygon class="fil1" points="1286,1140 1285,1141 1286,1142 1286,1140 "/>
   <polygon class="fil1" points="1277,1138 1281,1140 1283,1139 1282,1139 1277,1138 "/>
   <polygon class="fil1" points="1272,1156 1277,1157 1277,1157 1272,1155 "/>
   <polygon class="fil1" points="1259,1171 1263,1172 1263,1172 1259,1171 "/>
   <polygon class="fil1" points="1456,1143 1459,1148 1460,1148 1458,1143 "/>
   <polygon class="fil1" points="1303,1132 1306,1137 1307,1137 1304,1132 "/>
   <polygon class="fil1" points="1290,1142 1295,1138 1295,1138 1291,1141 "/>
   <polygon class="fil1" points="1316,1148 1316,1149 1317,1149 "/>
   <polygon class="fil1" points="1276,967 1276,968 1275,968 1270,971 1270,971 1276,968 "/>
   <polygon class="fil1" points="1289,967 1286,966 "/>
   <polygon class="fil1" points="1289,967 1289,967 "/>
   <polygon class="fil1" points="1289,986 1289,986 1285,985 1285,985 "/>
   <polygon class="fil1" points="1314,1002 1314,1002 1305,1000 1305,1000 "/>
   <polygon class="fil1" points="1315,1016 1315,1016 1306,1014 1306,1014 "/>
   <polygon class="fil1" points="1341,1023 1341,1023 1332,1021 1328,1020 1331,1025 1332,1025 1328,1020 1333,1021 "/>
   <polygon class="fil1" points="1350,1026 1350,1026 1345,1029 1345,1029 "/>
   <polygon class="fil1" points="1404,1077 1403,1077 1398,1081 1398,1081 "/>
   <polygon class="fil1" points="1408,1078 1407,1078 "/>
   <polygon class="fil1" points="1414,1076 1414,1075 1408,1078 1408,1078 "/>
   <polygon class="fil1" points="1431,1080 1431,1080 1421,1082 1420,1087 1415,1089 1415,1090 1420,1087 1422,1082 "/>
   <polygon class="fil1" points="1458,1094 1455,1096 1442,1097 1441,1097 1456,1096 "/>
   <polygon class="fil1" points="1473,1101 1473,1101 1471,1100 1471,1100 "/>
   <polygon class="fil1" points="1486,1118 1483,1117 1483,1117 "/>
   <polygon class="fil1" points="1567,866 1566,866 1566,867 "/>
   <polygon class="fil1" points="1571,847 1571,848 1571,848 1571,848 "/>
   <polygon class="fil1" points="1283,946 1281,946 1281,946 "/>
   <polygon class="fil1" points="1321,1027 1321,1031 1321,1032 1322,1028 1327,1024 1327,1024 "/>
   <polygon class="fil1" points="1404,1614 1414,1612 1418,1613 1422,1619 1425,1624 1434,1626 1442,1633 1445,1639 1449,1640 1452,1646 1451,1650 1455,1655 1458,1661 1456,1670 1451,1669 1449,1659 1446,1653 1443,1648 1435,1641 1432,1635 1424,1629 1421,1623 1412,1621 1407,1620 "/>
   <polygon class="fil1" points="1606,149 1611,146 1612,142 1617,143 1621,144 1629,133 1626,127 1622,125 1620,130 1616,129 1611,128 1610,132 1609,136 1603,139 1607,145 "/>
   <polygon class="fil1" points="1785,83 1783,87 1782,92 1775,100 1769,107 1762,115 1763,111 1764,106 1767,97 1777,95 1778,91 "/>
   <polygon class="fil1" points="1437,361 1436,361 1437,357 1438,357 "/>
   <polygon class="fil1" points="1633,190 1633,190 1630,185 1630,185 "/>
   <polygon class="fil1" points="1654,181 1654,181 1647,175 1647,175 "/>
   <polygon class="fil1" points="1322,558 1319,558 1323,558 1322,563 1324,568 1324,568 1321,563 "/>
   <polygon class="fil1" points="1356,529 1354,529 1354,529 "/>
   <polygon class="fil1" points="1612,198 1612,198 1604,192 1604,192 "/>
   <polygon class="fil1" points="1708,210 1709,210 "/>
   <polygon class="fil1" points="1693,196 1693,196 1701,203 1708,210 1708,210 1700,203 "/>
   <polygon class="fil1" points="1685,189 1685,189 1689,195 "/>
   <polygon class="fil1" points="1668,166 1676,173 1683,180 1681,188 1681,188 1683,180 1675,173 1668,166 1659,163 1659,163 "/>
   <polygon class="fil1" points="1694,178 1693,178 1691,167 1692,163 1685,156 1681,151 1682,151 1685,156 1693,163 1691,167 "/>
   <polygon class="fil1" points="1706,186 1705,185 1702,180 1700,179 1703,180 "/>
   <polygon class="fil1" points="1731,197 1731,197 1729,187 1725,186 1725,186 1729,187 "/>
   <polygon class="fil1" points="1657,424 1656,428 "/>
   <polygon class="fil1" points="1788,141 1788,141 1780,139 1780,139 "/>
   <polygon class="fil1" points="1451,1374 1451,1371 1451,1370 1451,1370 1450,1373 "/>
   <polygon class="fil1" points="1579,1497 1581,1497 1586,1494 1585,1494 "/>
   <polygon class="fil1" points="1555,1542 1552,1543 1555,1542 "/>
   <polygon class="fil1" points="1563,1530 1562,1530 1562,1530 1563,1530 "/>
   <polygon class="fil1" points="1570,1522 1565,1525 1570,1522 "/>
   <polygon class="fil1" points="1563,1503 1565,1505 1565,1503 1563,1502 "/>
   <polygon class="fil1" points="1551,1517 1552,1517 1553,1516 "/>
   <polygon class="fil1" points="1528,1516 1529,1516 1533,1513 1532,1513 "/>
   <polygon class="fil1" points="1505,1513 1509,1512 1509,1512 "/>
   <polygon class="fil1" points="1488,1502 1490,1503 1491,1502 "/>
   <polygon class="fil1" points="1464,1508 1464,1508 1464,1508 "/>
   <polygon class="fil1" points="1621,1181 1621,1180 1622,1182 "/>
   <polygon class="fil1" points="1471,1147 1472,1149 1470,1147 "/>
   <polygon class="fil1" points="1478,1157 1479,1158 1478,1158 "/>
   <polygon class="fil1" points="1318,1541 1316,1541 1318,1541 "/>
   <polygon class="fil1" points="1401,1497 1401,1497 1404,1502 1404,1502 "/>
   <polygon class="fil1" points="1355,1494 1355,1494 1358,1499 1358,1499 "/>
   <polygon class="fil1" points="1347,1450 1347,1450 1342,1453 1342,1452 "/>
   <polygon class="fil1" points="1162,1165 1160,1165 1161,1164 1161,1164 "/>
   <polygon class="fil1" points="1417,1326 1409,1324 1405,1323 1405,1323 1408,1323 "/>
   <polygon class="fil1" points="1448,1334 1438,1337 1433,1340 1433,1339 1438,1336 1448,1334 "/>
   <polygon class="fil1" points="1420,1427 1420,1426 1422,1427 1421,1427 "/>
   <polygon class="fil1" points="1223,1175 1216,1174 1220,1175 "/>
   <polygon class="fil1" points="1430,1367 1433,1368 1432,1369 1430,1368 "/>
   <polygon class="fil1" points="1044,1093 1044,1093 1043,1093 1046,1097 1049,1102 1062,1106 1062,1105 1049,1102 1046,1096 "/>
   <polygon class="fil1" points="1976,1386 1977,1386 1976,1384 "/>
   <polygon class="fil1" points="2067,1250 2067,1251 2065,1250 "/>
   <polygon class="fil1" points="2043,1150 2044,1145 2044,1146 2043,1150 "/>
   <polygon class="fil1" points="2025,1145 2035,1143 2035,1143 2025,1145 "/>
   <polygon class="fil1" points="2008,1140 2017,1138 2018,1134 2018,1134 2017,1139 2008,1141 "/>
   <polygon class="fil1" points="1969,1126 1974,1122 1985,1116 1986,1117 1975,1123 1969,1126 "/>
   <polygon class="fil1" points="1955,1122 1961,1119 1961,1119 1956,1122 "/>
   <polygon class="fil1" points="1940,1113 1948,1116 1952,1117 1952,1117 1948,1116 "/>
   <polygon class="fil1" points="1935,1112 1939,1113 1935,1112 "/>
   <polygon class="fil1" points="1916,1075 1922,1071 1923,1071 1917,1075 "/>
   <polygon class="fil1" points="1877,1027 1887,1025 1891,1026 1891,1026 1887,1025 1878,1028 "/>
   <polygon class="fil1" points="1859,1023 1865,1019 1866,1019 1860,1023 "/>
   <polygon class="fil1" points="1845,1023 1855,1022 1856,1022 1856,1022 1846,1023 "/>
   <polygon class="fil1" points="1732,778 1736,779 1737,779 1736,779 1732,778 "/>
   <polygon class="fil1" points="1733,754 1738,751 1739,751 1733,754 "/>
   <polygon class="fil1" points="1748,734 1747,735 1744,729 1741,724 1741,724 1745,729 "/>
   <polygon class="fil1" points="1811,543 1810,544 1812,540 "/>
   <polygon class="fil1" points="1819,442 1819,442 1819,442 "/>
   <polygon class="fil1" points="1821,406 1821,406 1821,406 "/>
   <polygon class="fil1" points="1820,366 1819,368 1819,372 1818,371 1819,367 "/>
   <polygon class="fil1" points="1830,346 1830,347 1829,348 "/>
   <polygon class="fil1" points="1812,232 1813,233 1812,232 "/>
   <polygon class="fil1" points="1815,195 1815,195 1812,194 1814,190 1815,186 1816,181 1818,172 1824,169 1825,164 1822,159 1818,153 1814,152 1802,145 1809,137 1809,137 1802,145 1814,152 1819,153 1822,159 1825,164 1824,169 1818,173 1816,182 1815,186 1814,190 1813,194 "/>
   <polygon class="fil1" points="1569,1002 1569,1002 1564,1001 1564,1001 "/>
   <polygon class="fil1" points="1574,1007 1572,1008 1572,1008 "/>
   <polygon class="fil1" points="1627,999 1626,999 1611,999 1612,999 "/>
   <polygon class="fil1" points="1680,1027 1680,1027 1675,1026 1675,1026 "/>
   <polygon class="fil1" points="1717,1045 1715,1042 1716,1046 "/>
   <polygon class="fil1" points="1730,1053 1730,1054 1730,1054 "/>
   <polygon class="fil1" points="1742,1043 1741,1043 1736,1046 1736,1046 "/>
   <polygon class="fil1" points="1764,1049 1763,1049 1758,1052 1758,1052 "/>
   <polygon class="fil1" points="1776,1062 1775,1061 1775,1061 1776,1062 "/>
   <polygon class="fil1" points="1832,1024 1833,1020 "/>
   <polygon class="fil1" points="1831,1023 1832,1024 1832,1020 1842,1018 1842,1018 1833,1020 1831,1028 1830,1028 1831,1024 1831,1024 "/>
   <polygon class="fil1" points="1834,978 1827,971 1826,971 1833,978 "/>
   <polygon class="fil1" points="1812,850 1815,851 1815,851 "/>
   <polygon class="fil1" points="1712,833 1712,833 1722,832 1727,828 1725,823 1721,817 1731,815 1741,813 1740,812 1740,812 1730,815 1721,817 1724,822 1727,828 1722,831 "/>
   <polygon class="fil1" points="1703,831 1704,831 1709,828 1708,828 "/>
   <polygon class="fil1" points="1618,889 1622,890 1632,888 1632,887 1622,890 "/>
   <polygon class="fil1" points="1613,887 1609,886 1609,886 1609,886 "/>
   <polygon class="fil1" points="1601,898 1601,898 1607,895 1614,887 1613,887 1606,895 "/>
   <polygon class="fil1" points="1589,942 1590,938 1588,933 1589,937 "/>
   <polygon class="fil1" points="1583,964 1584,964 1584,963 "/>
   <polygon class="fil1" points="1688,1033 1683,1032 1683,1032 "/>
   <polygon class="fil1" points="1702,1033 1702,1032 1696,1035 1696,1036 "/>
   <polygon class="fil1" points="1849,939 1849,939 1857,941 1857,941 "/>
   <polygon class="fil1" points="1836,935 1840,936 1836,935 "/>
   <polygon class="fil1" points="1781,837 1781,837 1791,836 1793,831 1797,832 1797,832 1792,831 1791,835 "/>
   <polygon class="fil1" points="1686,859 1687,860 1698,853 1681,844 1695,829 1694,829 1694,829 1694,829 1681,844 1697,853 "/>
   <polygon class="fil1" points="1673,856 1676,857 "/>
   <polygon class="fil1" points="1640,890 1641,890 1648,882 1649,877 1652,865 1653,860 1672,861 1673,856 1673,856 1671,860 1653,860 1651,865 1648,877 1647,882 "/>
   <polygon class="fil1" points="1584,997 1584,999 1585,997 "/>
   <polygon class="fil1" points="1636,893 1637,889 1636,889 1635,893 "/>
   <polygon class="fil1" points="1812,897 1817,899 1817,899 "/>
   <polygon class="fil1" points="1655,1180 1649,1182 1643,1186 1630,1187 1629,1186 1643,1186 1649,1182 1654,1180 "/>
   <polygon class="fil1" points="1657,1181 1655,1180 "/>
   <polygon class="fil1" points="1687,1197 1682,1200 1682,1200 1686,1197 "/>
   <polygon class="fil1" points="1703,1206 1702,1211 1702,1211 1703,1206 "/>
   <polygon class="fil1" points="1716,1247 1712,1246 1708,1245 1708,1245 1711,1246 1716,1247 "/>
   <polygon class="fil1" points="1688,1334 1688,1334 1689,1334 "/>
   <polygon class="fil1" points="1660,1247 1660,1247 1660,1247 "/>
   <path class="fil1" d="M1701 1342l1 -5 1 -4 -3 -5 1 -5 6 -3 4 1 -1 4 6 -3 8 2 6 -3 4 1 4 1 2 -8 -2 -6 -5 -1 -8 -7 1 -4 5 2 0 -1 0 1 5 -4 4 6 3 5 4 1 3 -13 7 -8 5 2 3 5 10 -2 11 -6 4 1 -1 4 5 1 2 -9 1 -4 3 -9 2 10 3 6 -2 4 3 10 -9 -2 -1 4 -1 5 -1 4 7 7 8 6 16 -5 9 -2 4 1 6 -3 1 15 6 -4 6 -8 2 -4 4 1 3 6 6 -4 4 1 13 4 -1 4 5 2 1 -5 4 1 8 -12 10 -2 -3 9 5 1 17 -10 10 -2 5 -3 6 -3 4 1 8 7 5 -4 -3 -5 10 -2 7 -8 6 -3 4 1 5 -4 1 -4 4 6 4 1 2 -4 0 -1 5 -3 4 1 5 -2 -2 8 5 1 11 -6 5 -3 9 2 -2 8 -2 5 -9 2 -11 2 -5 4 3 5 4 6 -10 1 -8 -6 -4 -1 -6 3 -4 -1 -1 4 3 6 13 3 3 6 0 0 104 -8 4 -13 -4 -1 -7 -7 6 -8 6 -3 4 1 -3 -6 -11 -12 -14 -17 -6 -11 -6 3 -9 -2 -1 4 -6 3 -5 -4 5 -8 4 -13 -6 -16 -1 0 0 0 -2 -1 -2 0 2 -4 5 -3 6 -4 1 -4 -9 -2 -3 -5 5 -4 10 -2 6 -3 4 -13 -1 -1 -5 -1 -5 4 -8 -2 -8 -7 -7 -2 -2 -1 -1 4 -1 0 1 -2 -2 -5 0 -2 0 0 -1 0 -2 -7 6 -8 5 1 3 -14 -4 -1 12 -11 8 7 1 10 8 7 3 5 11 -7 1 -4 -1 -10 -1 -14 -8 -7 10 -2 9 2 1 -4 1 -4 5 -19 8 3 6 -3 7 -7 11 -7 1 -1c-6,-4 -18,-12 -23,-18 -8,-8 -13,-6 -19,-19 -7,-12 -4,-30 2,-43 1,-2 2,-5 3,-7 5,-9 10,-15 15,-27 5,-14 -32,-46 -41,-56l-1 -1c-10,-12 -40,-55 -50,-59 -11,-3 2,-10 2,-10 0,0 2,-33 7,-59l0 -4c3,-16 -1,-16 -6,-13 -3,3 -8,7 -11,8 -8,3 1,-39 1,-39l-4 -18 -4 -15 -17 -14c0,0 -20,-23 -30,-37 -11,-13 18,-26 18,-26 0,0 19,-26 22,-36l2 -10 0 0 -51 -31 -5 -20 -29 -27 -26 -27 8 -33 22 -10 -1 2 1 -4 -2 -10 -3 -5 1 -5 5 -3 3 -9 -3 -6 1 -4 -3 -5 -3 -6 -14 -3 -4 -2 -4 -1 -4 -6 5 2 1 -5 -5 -1 -4 -1 1 -4 -9 -3 -2 -5 -3 -10 7 -7 -5 -1 -3 -6 4 1 5 1 4 2 7 10 3 5 5 2 1 -4 7 6 8 6 5 2 4 1 3 5 9 3 9 2 12 8 5 -3 6 -4 3 6 -1 4 9 3 8 2 2 1 7 1 0 0 11 -6 2 0 3 1 10 -2 5 -3 1 -4 0 0 6 -3 0 0 4 1 0 0 0 0 1 -5 0 0 1 -4 5 1 9 -17 -2 -10 2 -8 -5 -2 3 -8 0 0 0 0 -5 3 0 0 -4 -6 2 -8 -8 -3 0 0 -5 -1 2 -5 -13 -7 -10 1 -3 -4 -3 -6 -8 -7 -1 4 -3 -5 -7 -10 -13 -4 -11 -12 -11 -8 -11 2 -30 -8 -4 -1 -4 -6 -10 2 1 -4 -3 -6 -6 3 -2 -10 -4 -1 -3 -10 -3 -1 -7 8 -5 -1 -2 -10 -4 -1 -3 13 -10 -2 -3 -6 -7 -2 7 -13 -1 1 -9 -2 -5 -2 6 -3 2 -9 -3 -5 4 1 6 -3 1 -5 1 -4 -4 -1 1 -5 -9 -2 -10 2 3 -9 -9 -2 -4 -6 -11 7 -1 4 -6 4 -2 -11 1 -4 6 -3 1 -5 3 -9 -5 -1 -11 7 -1 4 -11 2 -3 14 -1 4 -4 -6 2 -4 -3 -6 1 -4 1 -5 1 -4 -4 -1 5 -3 -3 -6 -16 6 -3 -6 -6 3 -1 4 8 7 -14 1 -4 -5 -5 3 -3 9 -4 -1 3 5 -11 7 -3 -10 -5 3 -1 4 -1 5 -6 3 -3 -5 -5 -2 -1 5 -3 -6 -5 -1 -5 3 -1 5 -5 -2 -5 4 -3 9 4 5 -3 9 -3 -6 -3 -5 -5 -1 -6 8 -3 -11 -5 4 -2 9 1 10 -1 4 -3 -5 -2 -11 -2 9 -7 8 -3 -6 2 -8 -6 3 -3 13 -4 -1 -5 -1 -5 3 3 6 -6 3 -5 3 -2 5 4 5 -6 4 -13 -4 1 -5 -6 4 -1 4 -2 9 -2 4 -6 8 2 -9 3 -8 1 -5 -6 4 -4 -2 -5 -1 -6 3 5 1 3 6 -1 5 -3 -6 -6 3 -3 -6 -5 -1 -2 9 -5 4 14 -2 3 6 -1 5 -9 -3 -4 -1 -6 3 -1 5 9 2 -2 9 -5 -1 -4 -1 -6 3 -5 3 -8 -7 -6 4 -1 4 -1 4 -4 -1 -6 3 3 6 -5 4 -9 -3 3 6 3 6 6 -4 -2 9 -9 -2 -5 -2 -1 5 3 5 -5 4 -5 -2 -6 4 -5 3 3 6 -1 4 -6 3 -3 -5 1 -4 -7 7 -1 4 5 2 -2 8 -6 4 -4 -1 -3 8 -5 4 -5 -2 -1 5 4 1 -1 5 -1 4 -6 3 -7 -6 1 -5 -3 -6 -6 4 -6 3 -4 -1 -5 -1 -2 9 -6 2 -6 8 -5 -1 -4 -1 -1 5 -2 8 -4 -5 -5 3 -6 3 -3 -6 -6 4 -6 3 -4 -1 -2 9 -4 -6 -4 -1 3 6 -1 4 -4 -1 -4 -5 -5 3 -5 -1 -4 -2 -5 -1 -1 5 2 10 -4 -2 -5 -1 -8 -7 -4 -1 -5 4 3 5 -1 5 -5 -1 -9 -3 -7 8 3 -9 -5 -1 -5 3 -3 -5 -5 -2 -4 -1 -1 5 -2 4 4 6 4 1 -1 4 -5 -1 -5 3 -9 -2 -1 4 3 6 -1 5 -8 -7 -1 4 -1 5 2 9 9 3 -1 5 -5 -2 -7 -7 -2 5 -1 4 2 10 4 6 -6 3 -3 -6 -6 4 -1 4 7 7 -4 -1 -4 -1 -1 4 3 6 3 5 9 3 10 -2 -11 6 -5 3 -7 4 7 11 -4 -1 -5 -1 -5 3 -4 -6 -4 -1 -7 7 -1 5 -6 8 3 6 12 -11 9 2 -1 4 -3 9 -4 -1 -2 9 -6 3 1 -4 -5 3 -1 4 -3 9 -1 5 7 11 12 8 -12 6 8 7 6 -3 -3 9 14 3 9 2 10 -1 -1 4 9 -2 6 -4 7 -7 6 -4 14 -1 2 -4 5 -3 9 2 -1 5 3 5 10 -2 3 -9 11 -6 2 -9 -4 -6 12 -6 6 -3 5 -4 5 1 -3 9 -5 3 -5 -1 -2 9 4 1 11 12 -10 7 -1 0 0 0 -2 9 -1 4 -3 9 -1 5 -1 4 -1 5 -1 4 4 1 -2 9 5 -3 4 6 -8 7 -1 4 -1 5 -1 4 -2 9 -1 5 3 5 -6 4 -2 8 4 6 4 1 -4 14 8 6 -1 5 -1 4 -4 -1 -2 4 -5 3 -2 5 -1 4 4 6 -1 5 3 5 -1 4 -3 9 -5 4 3 5 6 -3 3 6 14 -1 4 5 4 1 5 2 1 -5 2 -9 3 -9 5 -3 4 1 5 2 6 -4 -5 -1 6 -3 10 -2 7 6 -1 5 5 1 9 2 4 1 2 -8 2 -5 12 -11 2 -8 6 -4 6 -3 1 -5 -5 -1 7 -8 6 -3 -4 -5 1 -5 2 -4 5 -3 1 -5 7 -8 1 -4 2 -5 -3 -9 11 -2 -13 -8 6 -4 8 7 4 1 11 -6 1 -5 1 -4 5 1 4 1 4 6 7 -8 5 -3 10 -2 -8 -7 1 -5 6 -3 5 1 12 -10 -3 -6 2 -9 -10 2 1 -4 2 -5 -4 -5 -3 -6 1 -4 1 -5 -10 3 -3 -6 -4 -6 3 -9 -4 -5 1 -5 -3 -5 5 1 5 -3 3 -9 1 -5 2 -9 5 2 -4 -6 6 -3 2 -9 6 -3 2 -9 -13 -4 2 -9 6 -3 8 7 5 -3 5 1 5 -3 5 1 10 -2 -4 -6 12 -7 -4 -5 9 2 7 -7 3 5 10 -2 -3 -6 6 -3 4 1 10 -2 3 -9 1 -4 1 -4 7 -8 4 1 7 -8 5 -3 -3 -5 1 -5 3 -9 2 -9 5 -3 2 -4 1 -5 6 -3 9 2 2 -9 2 -8 1 -5 4 1 4 6 11 -7 3 6 5 1 4 1 3 6 6 -3 2 -10 -3 -5 -2 -10 1 -4 2 -9 3 -9 5 -3 -3 -6 1 -4 -3 -6 1 -5 1 -4 1 -4 -9 -3 6 -3 1 -4 1 -5 2 -4 1 -5 -4 -5 3 -9 0 0 -2 9 3 5 -1 5 -1 4 -2 5 -1 4 -5 3 9 3 -2 4 -1 5 -1 4 4 6 -2 4 3 6 -5 3 -2 9 -3 9 -1 4 2 10 4 5 -3 10 5 1 3 5 9 3 -1 4 3 5 -1 5 -2 4 -2 9 -1 5 3 5 -1 5 -4 -1 -5 -2 -4 -1 -1 5 -13 11 -1 4 -7 8 -5 3 -11 7 -1 4 -2 4 -10 3 -5 3 -6 3 -1 5 -3 9 -9 1 -4 -5 -4 -1 -3 9 -11 6 -2 9 -1 4 3 6 -2 9 -6 3 -1 5 8 6 -1 5 -3 9 -3 13 -3 9 -10 2 -2 9 -1 4 5 16 14 3 3 6 9 2 4 2 2 10 -2 8 3 6 4 5 13 4 4 1 7 -8 6 -3 2 10 5 -3 6 -3 10 -2 15 -1 4 1 4 1 2 -4 1 -5 6 -3 2 10 5 -4 10 -2 7 -7 3 5 10 3 3 1 6 -3 8 -9 -3 9 9 3 10 -2 4 1 -1 4 -6 8 -1 4 8 3 3 6 8 6 5 -3 9 2 5 2 3 5 4 1 -2 9 -4 -1 -10 -3 -8 -2 -14 -3 -1 4 -4 -1 1 -5 -6 4 -1 4 -1 4 -1 5 -4 -1 -2 -10 -6 3 -1 5 -1 4 -2 9 -4 -1 -18 -5 -4 -1 -4 -6 -4 -1 -10 2 1 -4 -9 -3 -4 -1 -4 -1 -5 -1 -5 3 -4 -1 -9 -2 -5 -1 -4 -1 -5 -2 -1 5 -1 4 -4 -1 -5 -1 -4 -1 -6 3 -1 4 -1 5 -1 4 9 3 -1 3 -1 5 -5 -1 -1 4 -4 14 7 10 4 1 1 -3 6 -4 4 1 4 6 -7 8 -2 8 -1 4 -5 0 -2 4 -1 5 -1 4 -2 8 -1 5 -3 9 -5 3 -6 3 -4 -1 -7 -11 -3 -5 2 -10 -6 -11 -4 -1 -4 -5 2 -4 -9 -3 -10 2 -6 3 -4 -1 -6 8 -3 9 -7 8 -7 7 -11 25 15 -1 1 0 -15 1 -1 0 -3 13 -2 5 -1 4 1 15 -3 13 9 2 -1 4 3 6 4 1 4 6 2 0 -2 2 -9 -3 -5 -1 -2 0 0 -4 -2 -6 -7 -1 -5 -1 -1 4 5 1 -7 8 -6 3 -8 -2 1 -5 1 -4 1 -4 -16 5 -1 4 -9 5 7 4 -1 5 -6 3 -4 -1 -1 5 -1 4 -2 4 -9 -2 -4 -1 1 -5 -4 -1 -15 1 -3 -6 1 -4 1 -4 1 -5 -3 -5 1 -5 -13 -3 -6 3 -4 -1 -8 -7 -6 3 -4 -1 -1 4 -5 -1 -5 4 -4 -6 -5 3 -6 4 -5 3 -5 -1 -5 3 -5 -1 -1 4 -4 -1 -9 -2 -5 -1 -10 2 -7 8 -5 3 3 5 -1 5 -1 -1 -7 -2 -3 -7 -1 3 2 -10 -13 -3 2 -9 3 -9 -9 -3 -5 -1 1 -4 -3 -6 1 -4 -4 -1 -6 3 -5 -1 -4 -1 -10 1 -10 3 -3 -6 -1 4 -5 -1 -9 -2 -4 -1 -8 -7 5 1 1 -4 4 1 1 -4 2 -5 -5 -1 -5 -2 -5 4 -2 -10 -4 -1 -5 -1 1 -5 -4 -1 -5 -1 1 -5 6 -3 -3 -5 -4 -6 -1 -2 1 0 0 0 -1 -3 -2 0 2 3 1 0 3 -2 4 2 -3 -6 -4 -6 6 -3 5 1 -4 -5 1 -4 5 1 1 -5 1 -4 5 1 5 -3 5 1 1 -5 10 -2 7 -7 -3 -6 5 -3 5 1 -1 4 4 1 5 -3 2 -4 1 -5 -3 -5 -5 -1 -4 -2 1 -4 -5 -1 2 -5 5 -3 5 1 -4 -5 2 -5 -5 -1 -4 -1 -1 4 -10 -2 -4 -1 -6 3 4 6 -1 4 -4 -6 -5 4 1 -5 1 -4 -5 -1 -5 3 -1 5 -4 -2 -4 -5 -4 -1 1 -5 -5 -1 -1 4 -5 4 -2 4 -2 9 -1 4 -1 5 -1 4 -2 5 -1 4 -5 3 3 6 4 1 -1 5 4 5 -2 5 -1 4 -2 9 -1 4 -1 -1 -3 9 -1 5 3 5 -1 5 -10 2 -4 -1 -1 4 4 1 -1 4 -2 5 8 7 -5 3 3 6 -9 -3 -9 -2 -1 4 -2 9 -1 5 -6 3 -1 4 -2 -9 1 -5 1 -4 -4 -2 -2 5 -4 -1 1 -5 6 -3 -8 -7 -9 -2 -9 -3 -4 -1 -1 5 -6 3 -1 5 4 1 -1 4 3 6 0 0 -3 -5 -6 3 -5 -1 5 -18 -4 -1 -5 -1 -5 3 -10 2 1 -4 1 -5 -6 4 -4 -1 -5 -2 -10 2 -6 4 -1 4 -1 4 -1 5 -1 4 -3 9 -10 7 -5 -2 -4 -1 2 -8 6 -4 -5 -1 6 -3 5 -4 2 -4 -4 -6 -9 -2 -7 8 -2 8 -5 4 -1 4 -5 -1 -1 5 -6 3 -9 -2 -2 9 4 1 -1 4 -10 2 3 -9 -5 -1 -1 4 -1 5 -3 9 5 1 3 5 -4 -1 -5 3 -1 5 -9 -2 -5 -2 -4 -1 1 -4 -3 -6 -5 -1 1 -5 -4 -1 -6 4 -3 -6 -1 5 -10 2 -1 4 -2 5 0 3 -1 0 1 -4 2 -5 1 -4 -9 -3 -5 -1 -4 -1 -5 -1 -4 -1 -5 3 -2 4 -1 5 -5 3 -1 5 -3 9 -1 4 -5 -1 -4 -1 -6 3 -4 -2 -10 3 -10 2 -9 -3 -9 -2 -1 5 4 1 8 6 3 6 -4 -1 -1 5 -8 -8 -9 -2 -9 -2 1 -5 -9 -2 -7 -7 -8 -7 -1 5 -8 -7 6 -3 -4 -6 1 -4 6 -3 -4 -1 -5 -1 -3 -6 -4 -1 -2 4 -6 3 -2 9 -1 4 3 11 -6 3 -2 5 -1 3 4 6 -1 5 -9 -3 -4 -5 -4 -1 -4 -1 5 -4 -9 -2 -9 -3 -3 -5 -1 4 -9 -2 1 -4 3 -9 -5 -2 -4 -1 1 -4 -8 -7 -6 4 -1 4 -8 -2 1 -5 -9 -2 -5 -1 -3 -6 -6 3 -4 -1 -4 -1 -5 -1 -1 4 4 1 5 2 4 1 -1 4 -2 5 -4 -1 -1 4 -4 -1 -5 -2 -5 4 4 1 4 6 2 10 1 -5 7 7 2 -5 4 2 -1 4 6 11 5 1 -1 5 4 1 -1 4 -1 5 9 2 9 3 -6 3 5 1 3 5 -7 8 4 1 4 6 -1 5 4 1 -1 4 -11 7 -2 4 3 10 4 1 -3 9 4 6 -1 4 8 7 5 -4 -1 5 -1 4 -6 4 5 1 -6 3 -2 9 -1 4 -6 4 -1 4 4 1 -1 5 -1 4 3 6 -1 4 -2 9 -1 4 -4 -5 2 -5 1 -4 -4 -6 2 -4 -4 -5 1 -5 -6 3 -3 14 -1 4 -5 3 -3 9 -4 -1 7 7 -5 3 -9 -3 -1 5 -1 4 -6 4 -1 4 -4 -1 -3 9 -4 -1 -6 3 -1 4 -11 7 -11 6 -1 0 -4 -6 -8 -2 -8 -7 -3 -6 -5 -1 -4 -1 -9 -2 -3 -6 -3 -10 -8 -2 -4 -6 -4 -1 -9 -2 -4 -1 -4 -6 -4 -1 -5 -1 -3 -6 -3 -6 -4 -1 -8 -6 -5 -2 -7 -7 1 -4 -9 -2 -4 -6 -4 -1 -8 -2 -4 -6 -3 -5 -10 2 -3 -10 -3 -6 1 -4 2 -5 -11 2 -4 -1 -3 -5 -2 4 -4 -1 -4 -1 -5 -2 4 6 -6 3 -6 4 1 -5 -3 -5 -4 -2 -5 -1 -3 -5 -7 7 -3 -5 -6 3 -5 3 3 6 -1 4 5 -3 -1 4 -5 4 9 2 -2 4 -5 4 -1 4 -6 3 4 2 -1 4 -5 3 -4 -5 -5 3 -3 9 1 0 -1 4 -1 5 -1 4 -6 3 -1 5 -2 9 -6 3 -5 3 -3 9 -5 3 -6 3 -2 9 -6 4 -7 7 -5 3 -6 4 -1 4 -5 3 -8 8 -4 -1 -9 -2 -5 3 -2 4 -1 5 -1 4 -5 3 -6 4 -1 4 -1 4 8 3 4 5 4 1 -2 9 -2 5 -5 3 -5 3 -2 5 -5 3 3 6 -6 7 -2 5 -4 -1 -6 3 -1 4 -7 8 -6 3 -1 5 5 1 4 1 6 -3 3 6 -1 4 4 1 5 1 3 6 8 6 3 6 6 -3 -1 4 4 2 14 -1 4 1 3 6 4 5 3 6 -1 4 8 7 3 6 -1 4 -6 3 5 1 4 2 -7 7 -1 5 -9 -3 3 6 -2 9 3 6 5 1 3 5 2 10 6 -3 1 -5 10 -1 9 2 6 -3 4 1 8 7 4 1 7 -8 9 2 7 7 4 6 9 2 2 10 9 2 13 4 5 1 7 7 6 -4 9 3 3 5 5 1 -2 5 5 1 6 -3 1 -5 1 -4 10 -2 1 -4 9 2 6 -4 8 3 5 1 8 7 6 -3 9 -3 3 -9 5 -3 5 2 5 -4 1 -4 10 -2 5 1 9 2 11 -6 -3 -6 1 -4 -4 -6 2 -5 1 -4 2 -9 2 -9 6 -3 6 -3 10 -2 11 -7 4 1 6 -3 12 -6 5 -3 10 -3 1 -4 5 1 1 -4 6 -4 4 1 8 3 10 2 8 2 5 2 4 1 5 1 10 -2 5 1 5 -3 9 2 4 1 6 -3 4 1 6 -3 6 -3 1 -5 5 -3 1 -4 3 -10 -1 -1 2 0 -2 -2 -1 -3 0 -3 6 -3 -4 -6 7 -7 1 -5 6 -3 5 1 5 -3 5 1 4 1 4 1 6 -3 6 -3 4 1 4 6 3 5 4 1 9 3 -2 9 5 -4 5 2 5 -4 5 1 -1 5 -1 4 4 2 4 1 -1 4 -1 4 6 -3 3 6 3 5 -1 5 3 6 5 1 4 1 5 1 4 1 5 1 5 -3 1 -4 2 -5 4 1 4 1 5 2 1 -5 5 1 4 1 -1 5 10 -6 0 0 -4 3 4 -3 4 0 6 -4 5 1 4 1 10 -2 6 -3 1 -4 5 -4 6 -3 9 2 4 1 7 12 5 -4 12 13 1 -5 5 -3 5 1 4 1 -5 4 -2 4 4 6 -6 3 7 11 0 19 -1 19 4 6 3 24 4 1 7 12 2 10 4 5 2 6 10 16 20 34 5 1 1 10 9 3 3 10 5 -4 10 17 4 6 3 5 4 1 6 12 5 1 3 5 -2 9 -1 5 -1 4 7 7 5 1 4 1 8 7 3 5 -1 5 4 6 0 14 1 15 -3 13 -6 3 -4 -1 -5 -1 -1 4 -1 5 -1 4 -1 4 -6 4 -5 3 -1 5 3 5 4 1 5 1 4 1 6 -3 4 1 1 -4 11 -2 1 -5 2 -8 6 -4 5 -3 6 -3 4 1 4 1 5 1 1 -4 1 -4 2 -5 2 -9 1 -4 1 -5 -3 -5 -10 2 -3 -9 2 -12 3 -7 5 1 1 -5 6 -2 -5 -1 6 -4 5 -3 5 1 4 1 -1 4 8 8 4 1 5 1 4 1 5 1 -1 4 -2 5 3 6 -1 4 4 6 4 1 4 1 6 -4 2 -8 3 -9 1 -5 -8 -6 -2 -10 -3 -6 -8 -7 -9 -2 -3 -6 -3 -5 -13 -8 -3 -6 -3 -6 -5 -1 -8 -2 -4 -5 -8 -7 -4 -2 6 -3 4 1 6 -3 2 -9 -13 -8 -4 -1 -13 -3 -9 -3 -7 -6 -3 -10 -3 -6 -6 -11 -3 -10 -6 -11 2 -9 6 -4 -2 -9 -3 -11 2 -4 -3 -6 2 -8 -5 -1 -7 -7 -8 -7 -5 -1 -8 -7 2 -5 -4 -5 2 -5 -3 -9 6 -4 1 -4 1 -5 6 -3 6 -3 1 -5 -5 -1 -3 -5 1 -5 -4 -1 5 -3 5 1 2 -9 9 2 4 2 5 1 4 1 6 -3 4 1 1 -5 5 2 4 1 -1 4 4 6 2 -9 4 1 2 -1 3 3 5 -4 -1 5 -1 4 -1 5 -6 3 -4 -1 -6 3 4 6 -1 4 -3 9 4 6 -2 4 3 6 7 -8 6 -3 7 -8 1 -4 4 1 4 5 3 6 3 6 2 10 -7 7 -1 5 -2 8 9 3 -1 5 4 1 3 5 4 6 -14 -4 4 6 3 5 2 11 4 1 7 11 -1 4 8 7 10 -2 4 1 7 11 6 11 3 10 8 3 2 10 8 7 5 1 2 9 4 2 3 6 9 2 5 1 4 6 -2 4 3 5 5 2 -2 8 8 3 -1 4 5 1 4 2 2 -9 2 -5 1 -4 1 -5 0 0 -1 5 -1 4 -1 4 -2 9 3 6 -1 4 -2 5 -4 -1 -1 4 -1 5 -1 4 -2 4 -1 5 -2 9 -6 3 -1 4 -1 5 3 5 -5 4 -2 4 5 1 -1 5 -5 -1 -2 8 9 3 3 5 9 3 -1 4 2 10 -1 0 2 10 4 5 8 3 -1 4 -2 9 3 6 6 -4 5 2 4 1 5 1 -2 4 -1 5 -9 -3 -5 -1 -5 3 3 6 -1 5 -1 4 5 1 7 7 6 -3 4 1 4 1 -1 4 10 -2 5 2 5 1 8 2 3 5 4 6 1 -4 9 2 3 5 3 6 8 7 -5 3 -5 -1 -6 3 -3 -5 1 -5 -3 -5 -10 2 1 -5 -4 -1 -5 -1 -4 -1 -5 -1 -5 3 -5 -1 -4 -2 -4 -1 -5 -1 -5 4 -1 4 1 10 5 1 3 5 3 6 -1 5 -2 9 -6 3 4 5 -2 5 -1 4 2 10 5 2 5 1 5 -4 -3 -5 1 -5 5 -3 4 6 -1 4 -2 5 -1 4 3 5 5 2 2 10 4 1 3 -9 1 -4 1 -5 5 -3 -2 9 5 1 -3 9 5 1 18 5 1 -5 -8 -6 2 -5 -4 -6 2 -9 -4 -1 -2 -10 -4 -5 3 -9 4 1 4 6 -1 4 3 6 4 1 11 -2 9 -2 3 -9 -10 2 -5 -1 -3 -6 1 -4 6 -3 11 -7 4 1 2 10 8 7 1 -4 2 -5 2 -9 2 -9 -4 -1 -8 -7 -2 -9 -4 -2 -8 -6 -8 -7 -9 -3 -3 -5 5 -3 6 -4 1 -4 -5 -1 -2 -10 6 -4 4 1 9 3 4 5 -1 5 -1 4 4 2 7 -8 -5 -1 -10 -17 -2 -10 -8 -7 -3 -5 2 -9 2 -5 1 -4 -3 -6 5 -3 10 -2 4 1 -2 9 4 6 2 10 2 10 8 6 7 7 1 -4 -7 -7 -4 -6 1 -4 2 -5 3 6 3 5 4 6 12 8 1 -4 -5 -1 -2 -10 -3 -6 5 1 4 1 -2 9 9 2 10 -1 5 -4 -4 -1 -8 -7 -8 -7 -3 -5 -3 -6 1 -4 5 1 13 3 4 1 1 -4 1 -4 6 -4 3 6 3 6 10 2 5 -3 -3 -6 5 1 8 3 8 6 13 4 4 6 4 1 -1 0 4 6 9 2 4 1 6 -3 -2 4 -1 5 -4 -1 -11 6 3 6 6 -3 14 -2 6 -3 10 -2 1 -4 5 -4 11 -2 5 -3 6 -4 10 -1 4 1 9 2 9 3 4 1 6 -3 2 -9 -4 -2 -8 -6 -4 -2 -7 -11 -9 -2 2 -4 1 -5 -4 -5 -1 -1 1 -4 2 -9 -4 -1 -4 -5 2 -5 -9 -2 -6 3 3 -9 1 -4 5 -3 5 1 1 -5 5 -3 -3 -6 2 -8 5 1 2 -9 2 -9 9 2 9 3 6 -4 -1 -8 1 -2 1 -4 6 -8 -3 -6 3 -8 1 -5 5 -3 6 -3 -5 -2 -4 -1 1 -4 7 -8 1 -4 6 -4 3 6 -2 9 4 1 6 -3 1 -5 4 2 7 -8 5 -18 -5 6 -4 -10 -1 0z"/>
   <polygon class="fil1" points="1810,1356 1811,1352 1820,1350 1821,1345 1827,1342 1836,1344 1838,1340 1847,1337 1853,1335 1854,1331 1856,1322 1860,1323 1859,1327 1864,1328 1867,1334 1866,1338 1871,1335 1878,1327 1882,1333 1885,1339 1884,1343 1883,1347 1887,1348 1891,1349 1890,1354 1893,1359 1903,1357 1907,1363 1906,1367 1923,1372 1929,1368 1934,1365 1944,1363 1953,1365 1957,1366 1956,1371 1952,1370 1951,1374 1954,1380 1953,1384 1943,1386 1934,1384 1925,1382 1927,1377 1918,1375 1906,1382 1905,1386 1898,1398 1894,1392 1895,1388 1885,1390 1880,1393 1874,1397 1866,1409 1852,1410 1849,1404 1836,1401 1837,1396 1842,1393 1840,1383 1845,1380 1844,1370 1845,1366 1839,1369 1832,1362 1828,1356 1824,1355 1819,1354 "/>
   <path class="fil2" d="M2157 1054c-6,-4 -18,-12 -23,-18"/>
   <path class="fil2" d="M2021 561c1,-7 2,-9 2,-10"/>
   <path class="fil1" d="M2760 501l-1175 -493c-90,7 -182,20 -276,40 -48,9 -95,20 -143,33 -46,13 -95,28 -143,44 -96,32 -193,71 -288,119 -188,96 -374,222 -523,397 -74,87 -137,188 -176,303 -20,57 -33,118 -35,180 -3,63 4,126 22,187l14 42c6,15 13,31 20,46 8,14 15,27 23,41 8,13 17,26 26,39 36,51 79,95 127,133 95,74 203,125 313,158 27,8 55,15 83,22 27,6 55,12 83,16 55,10 110,16 165,19 110,6 219,3 324,-9 211,-23 409,-77 588,-147 90,-35 174,-74 254,-117 79,-43 154,-89 222,-137 136,-97 248,-203 331,-309 83,-107 137,-214 162,-307 13,-47 20,-90 22,-127 1,-19 0,-37 0,-52 -1,-16 -2,-31 -4,-44 -2,-12 -4,-24 -5,-33 -2,-10 -5,-18 -6,-25 -3,-13 -5,-19 -5,-19 0,0 1,6 5,19 1,7 4,15 5,25 2,9 4,21 6,33 6,51 7,129 -20,222 -27,93 -82,198 -168,301 -86,103 -201,203 -340,291 -70,44 -145,85 -225,122 -80,37 -166,70 -255,98 -178,57 -373,96 -575,107 -101,6 -203,3 -306,-8 -102,-12 -204,-32 -301,-65 -97,-33 -190,-79 -267,-142 -38,-31 -72,-66 -100,-105l-19 -30 -17 -32 -13 -30 -13 -36c-13,-45 -19,-93 -17,-141 2,-48 11,-96 26,-143 15,-47 36,-93 61,-137 24,-45 54,-87 85,-127 64,-81 139,-153 218,-218 80,-65 165,-124 253,-174 87,-50 177,-94 268,-131 45,-18 90,-35 136,-51 45,-15 91,-29 136,-41 90,-25 180,-44 267,-57 88,-12 173,-18 255,-19 165,-2 316,19 444,59 128,39 232,98 305,161 73,63 115,129 137,175 5,12 10,22 14,31 4,9 6,17 8,24 5,12 7,19 7,19 0,0 -2,-7 -7,-19 -2,-7 -4,-15 -8,-24 -4,-9 -8,-19 -14,-31 -5,-12 -13,-24 -20,-38 -8,-14 -18,-29 -29,-44 -22,-30 -51,-62 -87,-95 -72,-64 -175,-125 -303,-169 -128,-44 -279,-72 -446,-79 -27,-1 -54,-2 -82,-2 -58,0 -118,3 -179,8l1175 493z"/>
   <path class="fil1" d="M2760 501l-1175 -493c-90,7 -182,20 -276,40 -48,9 -95,20 -143,33 -46,13 -95,28 -143,44 -96,32 -193,71 -288,119 -188,96 -374,222 -523,397 -74,87 -137,188 -176,303 -20,57 -33,118 -35,180 -3,63 4,126 22,187l14 42c6,15 13,31 20,46 8,14 15,27 23,41 8,13 17,26 26,39 36,51 79,95 127,133 95,74 203,125 313,158 27,8 55,15 83,22 27,6 55,12 83,16 55,10 110,16 165,19 110,6 219,3 324,-9 211,-23 409,-77 588,-147 90,-35 174,-74 254,-117 79,-43 154,-89 222,-137 136,-97 248,-203 331,-309 83,-107 137,-214 162,-307 13,-47 20,-90 22,-127 1,-19 0,-37 0,-52 -1,-16 -2,-31 -4,-44 -2,-12 -4,-24 -5,-33 -2,-10 -5,-18 -6,-25 -3,-13 -5,-19 -5,-19 0,0 1,6 5,19 1,7 4,15 5,25 2,9 4,21 6,33 6,51 7,129 -20,222 -27,93 -82,198 -168,301 -86,103 -201,203 -340,291 -70,44 -145,85 -225,122 -80,37 -166,70 -255,98 -178,57 -373,96 -575,107 -101,6 -203,3 -306,-8 -102,-12 -204,-32 -301,-65 -97,-33 -190,-79 -267,-142 -38,-31 -72,-66 -100,-105l-19 -30 -17 -32 -13 -30 -13 -36c-13,-45 -19,-93 -17,-141 2,-48 11,-96 26,-143 15,-47 36,-93 61,-137 24,-45 54,-87 85,-127 64,-81 139,-153 218,-218 80,-65 165,-124 253,-174 87,-50 177,-94 268,-131 45,-18 90,-35 136,-51 45,-15 91,-29 136,-41 90,-25 180,-44 267,-57 88,-12 173,-18 255,-19 165,-2 316,19 444,59 128,39 232,98 305,161 73,63 115,129 137,175 5,12 10,22 14,31 4,9 6,17 8,24 5,12 7,19 7,19 0,0 -2,-7 -7,-19 -2,-7 -4,-15 -8,-24 -4,-9 -8,-19 -14,-31 -5,-12 -13,-24 -20,-38 -8,-14 -18,-29 -29,-44 -22,-30 -51,-62 -87,-95 -72,-64 -175,-125 -303,-169 -128,-44 -279,-72 -446,-79 -27,-1 -54,-2 -82,-2 -58,0 -118,3 -179,8l1175 493z"/>
   <path class="fil1" d="M2760 501l-1175 -493c-90,7 -182,20 -276,40 -48,9 -95,20 -143,33 -46,13 -95,28 -143,44 -96,32 -193,71 -288,119 -188,96 -374,222 -523,397 -74,87 -137,188 -176,303 -20,57 -33,118 -35,180 -3,63 4,126 22,187l14 42c6,15 13,31 20,46 8,14 15,27 23,41 8,13 17,26 26,39 36,51 79,95 127,133 95,74 203,125 313,158 27,8 55,15 83,22 27,6 55,12 83,16 55,10 110,16 165,19 110,6 219,3 324,-9 211,-23 409,-77 588,-147 90,-35 174,-74 254,-117 79,-43 154,-89 222,-137 136,-97 248,-203 331,-309 83,-107 137,-214 162,-307 13,-47 20,-90 22,-127 1,-19 0,-37 0,-52 -1,-16 -2,-31 -4,-44 -2,-12 -4,-24 -5,-33 -2,-10 -5,-18 -6,-25 -3,-13 -5,-19 -5,-19 0,0 1,6 5,19 1,7 4,15 5,25 2,9 4,21 6,33 6,51 7,129 -20,222 -27,93 -82,198 -168,301 -86,103 -201,203 -340,291 -70,44 -145,85 -225,122 -80,37 -166,70 -255,98 -178,57 -373,96 -575,107 -101,6 -203,3 -306,-8 -102,-12 -204,-32 -301,-65 -97,-33 -190,-79 -267,-142 -38,-31 -72,-66 -100,-105l-19 -30 -17 -32 -13 -30 -13 -36c-13,-45 -19,-93 -17,-141 2,-48 11,-96 26,-143 15,-47 36,-93 61,-137 24,-45 54,-87 85,-127 64,-81 139,-153 218,-218 80,-65 165,-124 253,-174 87,-50 177,-94 268,-131 45,-18 90,-35 136,-51 45,-15 91,-29 136,-41 90,-25 180,-44 267,-57 88,-12 173,-18 255,-19 165,-2 316,19 444,59 128,39 232,98 305,161 73,63 115,129 137,175 5,12 10,22 14,31 4,9 6,17 8,24 5,12 7,19 7,19 0,0 -2,-7 -7,-19 -2,-7 -4,-15 -8,-24 -4,-9 -8,-19 -14,-31 -5,-12 -13,-24 -20,-38 -8,-14 -18,-29 -29,-44 -22,-30 -51,-62 -87,-95 -72,-64 -175,-125 -303,-169 -128,-44 -279,-72 -446,-79 -27,-1 -54,-2 -82,-2 -58,0 -118,3 -179,8l1175 493z"/>
  </g>
 </g>
</svg>
