<?xml version="1.0" encoding="UTF-8"?>
<!DOCTYPE svg PUBLIC "-//W3C//DTD SVG 1.1//EN" "http://www.w3.org/Graphics/SVG/1.1/DTD/svg11.dtd">
<!-- Creator: CorelDRAW X8 -->
<svg xmlns="http://www.w3.org/2000/svg" xml:space="preserve" width="50px" version="1.1" style="shape-rendering:geometricPrecision; text-rendering:geometricPrecision; image-rendering:optimizeQuality; fill-rule:evenodd; clip-rule:evenodd"
viewBox="0 0 10445 10447"
 xmlns:xlink="http://www.w3.org/1999/xlink">
 <defs>
  <style type="text/css">
   <![CDATA[
    .fil0 {fill:#879299}
   ]]>
  </style>
 </defs>
 <g id="Слой_x0020_1">
  <metadata id="CorelCorpID_0Corel-Layer"/>
  <path class="fil0" d="M3332 5400c0,38 15,72 40,97 25,25 59,40 97,40l1403 0c38,0 73,-15 98,-40 25,-25 40,-59 40,-97l0 -1403 0 0c-1,-189 -65,-367 -175,-509 -109,-142 -265,-250 -448,-298l-62 -17 45 -46c195,-199 291,-458 289,-717 -1,-258 -101,-516 -299,-712 -198,-197 -457,-295 -715,-295 -259,0 -517,98 -715,295 -198,196 -298,454 -300,712 -2,259 95,518 290,717l45 46 -62 17c-183,48 -339,156 -449,298 -109,142 -174,320 -174,509l0 0 0 603c0,38 15,72 40,97l0 0c25,25 59,41 98,41 38,0 72,-16 97,-41 25,-25 40,-59 40,-97l0 -603c0,-156 63,-297 165,-398 102,-102 243,-166 399,-166l1052 0c155,0 296,64 398,166 102,101 165,242 165,398l0 1265 -1265 0c-38,0 -72,15 -97,40 -25,25 -40,60 -40,98zm4696 -314c-38,0 -72,16 -97,41 -25,25 -41,59 -41,97 0,38 16,73 41,98 25,25 59,40 97,40l1052 0c87,0 165,-35 222,-92 56,-56 91,-135 91,-221l0 -351c0,-86 -35,-165 -91,-221 -57,-57 -135,-92 -222,-92l0 0 -1052 0 0 0c-38,0 -72,16 -97,40 -25,25 -41,60 -41,98 0,38 16,73 41,97 24,25 59,41 97,41l1090 0 0 425 -1090 0zm1190 -1402l-839 0c-38,0 -73,15 -98,40l0 0c-25,25 -40,59 -40,98 0,38 15,72 40,97l0 0c25,25 60,40 98,40l876 0c38,0 73,-15 98,-40 25,-25 40,-59 40,-97 0,-38 -15,-73 -40,-98 -25,-25 -60,-40 -98,-40l-37 0zm0 -877l-839 0c-38,0 -73,16 -98,41l0 0c-25,24 -40,59 -40,97 0,38 15,73 40,97l0 0c25,25 60,41 98,41l876 0c38,0 73,-16 98,-41 25,-24 40,-59 40,-97 0,-38 -15,-73 -40,-97 -25,-25 -60,-41 -98,-41l-37 0zm-1541 -601l1578 0c39,0 73,-15 98,-40l0 0c25,-25 40,-60 40,-98 0,-38 -15,-72 -40,-97 -25,-25 -60,-41 -98,-41l-1578 0c-38,0 -72,16 -97,41 -25,25 -40,59 -40,97 0,38 15,73 40,98l0 0c25,25 59,40 97,40zm0 -877l1578 0c39,0 73,-15 98,-40l0 0c25,-25 40,-59 40,-97 0,-38 -15,-73 -40,-98 -25,-25 -60,-40 -98,-40l-1578 0c-38,0 -72,15 -97,40 -25,25 -40,60 -40,98 0,38 15,72 40,97l0 0c25,25 59,40 97,40zm-4345 8241l663 0c39,0 73,-15 98,-40 25,-25 40,-60 40,-98 0,-38 -15,-72 -40,-97 -25,-25 -59,-41 -98,-41l0 0 -701 0 0 0c-38,0 -72,16 -97,41 -25,25 -41,59 -41,97 0,38 16,73 41,98l0 0c25,25 59,40 97,40l38 0zm1327 -839c0,-38 -15,-73 -40,-98 -25,-25 -59,-40 -98,-40l-701 0c-38,0 -72,15 -97,40 -25,25 -41,60 -41,98 0,38 16,73 41,97 25,25 59,41 97,41l701 0c39,0 73,-16 98,-41 25,-25 40,-59 40,-97zm-1402 0c0,-38 -16,-73 -41,-98 -25,-25 -59,-40 -97,-40l-1227 0c-39,0 -73,15 -98,40 -25,25 -40,60 -40,98 0,38 15,72 40,97l0 1c25,24 59,40 98,40l1227 0c38,0 72,-16 97,-40l0 -1c25,-25 41,-59 41,-97zm1615 -1015l-1966 0 0 -2316 0 -1c0,-31 -10,-60 -28,-84 -18,-23 -44,-41 -74,-49 -30,-8 -61,-6 -89,6 -27,11 -51,31 -66,59l-1363 2385 -271 0 0 0c-135,0 -257,55 -346,143 -88,89 -143,211 -143,346l0 1753c0,135 55,257 143,346 89,88 211,143 346,143l3857 0c135,0 257,-55 346,-143 88,-89 143,-211 143,-346l0 -350c0,-38 -16,-73 -41,-98 -25,-25 -59,-40 -97,-40 -38,0 -73,15 -98,40 -25,25 -40,60 -40,98l0 350c0,59 -24,112 -62,151 -39,38 -92,62 -151,62l-3857 0c-59,0 -112,-24 -151,-62 -38,-39 -62,-92 -62,-151l0 -1753c0,-59 24,-112 62,-151l1 0c38,-38 91,-62 150,-62l351 0 0 0c24,0 48,-6 69,-18 20,-12 38,-29 50,-51l1145 -2004 0 1935c0,38 16,73 41,98 25,25 59,40 97,40l0 0 2104 0 0 0c59,0 112,24 150,62l1 1c38,38 62,91 62,150l0 351c0,38 15,72 40,97 25,25 60,40 98,40 38,0 72,-15 97,-40 25,-25 41,-59 41,-97l0 -351c0,-135 -55,-257 -143,-346 -88,-88 -210,-142 -344,-143l-2 0zm-3331 1578c-38,0 -73,16 -98,41 -25,25 -40,59 -40,97 0,38 15,73 40,98l0 0c25,25 60,40 98,40l0 0 1052 0 0 0c38,0 72,-15 97,-40 25,-25 41,-60 41,-98 0,-38 -16,-72 -41,-97 -25,-25 -59,-41 -97,-41l0 0 -1052 0 0 0zm3528 -8223c-655,-363 -1393,-451 -2077,-296 -683,155 -1312,553 -1745,1163 -434,610 -605,1334 -527,2030 77,697 402,1366 959,1865l0 1c19,17 41,28 64,33 24,5 49,4 72,-3 24,-8 45,-22 61,-39 16,-18 27,-40 32,-65 5,-24 4,-49 -4,-72 -8,-23 -21,-43 -40,-60l-1 0c-504,-453 -798,-1059 -868,-1690 -70,-631 84,-1287 477,-1839 394,-553 963,-913 1582,-1054 618,-140 1287,-61 1880,267l1 0c33,19 71,22 105,12 34,-10 64,-32 83,-66l0 -1c18,-33 21,-70 12,-103 -10,-34 -33,-65 -66,-83l0 0zm-1424 5243c-38,0 -73,15 -98,40 -25,25 -40,60 -40,98 0,38 15,72 40,97l0 0c25,25 60,40 98,40l0 1c455,1 898,-103 1297,-298 399,-195 754,-480 1033,-841 278,-360 466,-775 554,-1210 89,-435 79,-890 -37,-1330l0 0c-10,-37 -33,-67 -64,-85 -30,-18 -67,-24 -104,-15l-1 1c-36,9 -66,33 -84,63 -18,30 -24,67 -14,104l0 1c105,399 114,811 34,1205 -80,395 -250,771 -502,1097 -253,327 -575,586 -936,762 -361,177 -763,271 -1176,270l0 0zm6647 2545l-2098 -2098c-74,-70 -165,-114 -262,-130 -97,-17 -198,-4 -292,38l-23 11 -970 -969 18 -26c550,-815 728,-1776 568,-2677 -160,-900 -656,-1741 -1454,-2317 -798,-577 -1752,-784 -2657,-653 -906,131 -1762,601 -2363,1380 -601,779 -839,1727 -736,2636 103,909 546,1779 1305,2405l1 0c29,24 66,34 101,31 35,-4 68,-21 93,-50l0 -1c24,-29 34,-65 31,-100 -4,-35 -21,-69 -50,-93l0 0c-714,-585 -1127,-1403 -1217,-2254 -90,-852 142,-1738 718,-2459 576,-721 1388,-1145 2238,-1245 851,-101 1739,120 2468,686 729,567 1162,1373 1274,2223 111,849 -98,1740 -655,2476 -21,28 -43,55 -65,83 -21,27 -43,54 -67,81 -3,4 -5,7 -8,10l-5 5c-52,60 -105,117 -160,172 -55,55 -113,109 -173,161l-6 5 0 1c-3,3 -6,6 -10,9l0 0c-29,24 -56,46 -81,66 -26,21 -54,43 -82,64 -291,222 -615,393 -958,509 -342,116 -704,176 -1070,176l0 0c-26,0 -55,-1 -85,-2 -29,-1 -56,-2 -83,-4l0 0c-38,-2 -73,12 -100,35 -26,24 -43,57 -45,96 -3,38 11,73 35,99 23,27 57,44 95,46 31,2 62,3 91,5 29,1 59,1 92,1l0 0c363,1 722,-53 1066,-159 344,-105 671,-261 972,-465l26 -18 1051 1051c27,27 62,41 97,41 36,0 71,-14 98,-41l744 -744c42,-40 96,-60 150,-60 54,0 108,20 150,60 169,136 2108,2108 2108,2109 42,41 62,95 62,150 0,54 -20,108 -62,150l-743 744c-20,20 -44,36 -70,46 -25,11 -53,16 -81,16 -28,0 -56,-5 -82,-16 -25,-10 -49,-26 -69,-46l-1381 -1381c-27,-26 -62,-39 -96,-39 -35,1 -70,14 -97,41 -26,27 -40,61 -40,96 0,35 12,70 38,97l1382 1381c95,95 220,143 345,143 125,0 250,-48 345,-143 0,0 680,-680 744,-744 96,-95 143,-220 143,-345l0 0c0,-125 -47,-250 -143,-346l-10 -10 0 0zm-3782 -2897l896 897 -549 549 -925 -926 31 -26c90,-74 176,-152 258,-234 81,-81 159,-167 233,-257l27 -32 29 29zm-2339 -1652c38,0 72,-15 97,-40 25,-25 41,-60 41,-98 0,-38 -16,-72 -41,-97l0 0c-25,-25 -59,-41 -97,-41l-351 0c-38,0 -72,16 -97,41 -25,25 -41,59 -41,97 0,38 16,73 41,98 25,25 59,40 97,40l351 0zm-526 -2630c204,0 389,83 522,217 134,133 217,318 217,522 0,204 -83,389 -217,522 -133,134 -318,217 -522,217 -204,0 -389,-83 -523,-217 -133,-133 -216,-318 -216,-522 0,-204 83,-389 216,-522 134,-134 319,-217 523,-217z"/>
 </g>
</svg>
