<?xml version="1.0" encoding="UTF-8" standalone="no"?>
<!-- Created with Inkscape (http://www.inkscape.org/) -->

<svg
   xmlns:svg="http://www.w3.org/2000/svg"
   xmlns="http://www.w3.org/2000/svg"
   version="1.1"
   width="35"
   viewBox="0 0 12.8292 17.8691"
   id="svg2"
   xml:space="preserve"
   style="fill-rule:evenodd">
 <defs
   id="defs4">
  <style
   type="text/css"
   id="style6" />
 </defs>
 <g
   id="Layer_x0020_1">
  
  <path fill="#00e59e"
   d="m 6.35561,17.8391 c -0.010826,-0.0049 -3.7706,-1.69236 -5.03823,-2.24412 l -0.0088,-0.0039 -0.00462,-0.0025 c -1.31174002,-0.725349 -1.30501002,-2.01232 -1.30339002,-2.09053 l -5.67661e-4,0 0,-13.33459991 0,-0.163527 0.163527001,0 12.50209978,0 0.163527,0 0,0.163527 0,13.33459991 -5.27e-4,0 c 0.0016,0.07822 0.0084,1.36518 -1.30343,2.09049 l -0.0046,0.0026 -0.0088,0.0039 c -1.24642,0.542562 -5.01179,2.23922 -5.02266,2.24412 l -0.06666,0.03 -0.066862,-0.03 z M 1.45706,15.30016 c 1.17048,0.509678 4.45504,1.98268 4.96452,2.21124 0.506191,-0.227997 3.7612,-1.69333 4.95053,-2.21124 1.17173,-0.65062 1.13074,-1.79494 1.13066,-1.79823 l -6.49e-4,-0.0039 0,-13.17109998 -12.17509976,0 0,13.17109998 -6.4875e-4,0.0039 c -8.109e-5,0.0033 -0.0410337,1.14761 1.13066001,1.79823 z"
   id="path10"
   style="fill:#00e59e;fill-rule:nonzero" />
  <path fill="#00e59e"
   d="M 6.42207,1.24196 C 5.879468,1.843356 5.872007,2.59652 5.872007,2.73527 c 0,0.797806 0.104085,2.21501 0.104085,3.76602 0,2.42813 -1.16447,4.04345 -1.16447,4.04345 0,0 -0.019828,0.0397 -0.257677,0.0397 -0.23789,0 -0.753204,-0.193248 -0.753204,-0.7630983 0,-0.569891 0.629292,-0.72843 0.748217,-0.72843 0.118925,0 0.178408,0.019787 0.178408,0.019787 0,0 -0.118925,-1.04056 -0.386536,-3.38938 -0.520301,-2.5123 -2.40826,-3.38938 -2.40826,-3.38938 l 0,10.8669003 2.51729,0 c 0,0 0.183354,1.53114 1.52624,2.50736 0,0 0.426151,0.366668 0.445978,0.485593 0.019828,-0.118925 0.445978,-0.485593 0.445978,-0.485593 1.34284,-0.976173 1.5262,-2.50736 1.5262,-2.50736 l 2.51725,0 0,-10.8669003 c 0,0 -1.88796,0.877076 -2.40822,3.38942 -0.267571,2.34878 -0.386496,3.38934 -0.386496,3.38934 0,0 0.059442,-0.019787 0.178367,-0.019787 0.118925,0 0.748177,0.158539 0.748177,0.72843 0,0.5698503 -0.515274,0.7631383 -0.753123,0.7631383 -0.23789,0 -0.257677,-0.0397 -0.257677,-0.0397 0,0 -1.16447,-1.61536 -1.16447,-4.04345 0,-1.55101 0.104044,-2.96822 0.104044,-3.76602 0,-0.138752 -0.00742,-0.891957 -0.550022,-1.49331 l 0,-4.05e-5 z m -0.386536,11.9589 -0.773032,0 c 0,0 0.084257,0.896863 0.773032,1.53609 0,-0.406283 0,-1.53609 0,-1.53609 z m 0.773032,0 0.773032,0 c 0,0 -0.084257,0.896863 -0.773032,1.53609 0,-0.406283 0,-1.53609 0,-1.53609 z m 3.33979,-9.26633 c 0,0 -0.683788,0.852261 -0.882023,1.85325 -0.108991,0.921678 -0.326972,2.71553 -0.326972,2.71553 0,0 0.654026,0.277464 0.802713,0.961252 0.128818,0 0.406323,0 0.406323,0 l -4.1e-5,-5.53003 z m -1.82349,7.41304 c 0.15858,0 1.20409,-0.153593 1.41721,-1.12981 l 0.406283,0 0,2.24968 -1.66491,0 c 0,0 0,-0.614452 -0.15858,-1.11987 z m -0.619399,1.10998 -0.906797,0 c 0,0 0.029275,-0.801861 0.787872,-0.921678 0.064389,0.208129 0.118925,0.460859 0.118925,0.921678 z m -1.2834,-3.68667 c 0,0 -0.332,1.22886 -0.862236,2.03162 0.198195,0.128818 0.862236,0.579744 0.862236,0.579744 0,0 0.664001,-0.450925 0.862195,-0.579744 C 6.754027,9.999747 6.422067,8.77088 6.422067,8.77088 z m -1.28344,3.68667 0.906797,0 c 0,0 -0.029234,-0.801902 -0.787872,-0.921678 -0.064389,0.208129 -0.118925,0.460859 -0.118925,0.921678 z M 4.519228,11.34757 c -0.15858,0 -1.20413,-0.153593 -1.41725,-1.12981 l -0.406283,0 0,2.24968 1.66495,0 c 0,0 0,-0.614452 0.15858,-1.11987 z M 2.695698,3.93449 c 0,0 0.683788,0.852302 0.882023,1.85329 0.109031,0.921678 0.327054,2.71553 0.327054,2.71553 0,0 -0.654107,0.277424 -0.802794,0.961211 -0.128818,0 -0.406283,0 -0.406283,0 l 0,-5.53003 z"
   id="path12"
   style="fill:#00e59e" />
 </g>
</svg>