<?xml version="1.0" encoding="UTF-8"?>
<!DOCTYPE svg PUBLIC "-//W3C//DTD SVG 1.1//EN" "http://www.w3.org/Graphics/SVG/1.1/DTD/svg11.dtd">
<!-- Creator: CorelDRAW X8 -->
<svg xmlns="http://www.w3.org/2000/svg" xml:space="preserve" width="115px" version="1.1" style="shape-rendering:geometricPrecision; text-rendering:geometricPrecision; image-rendering:optimizeQuality; fill-rule:evenodd; clip-rule:evenodd"
viewBox="0 0 15204 13918"
 xmlns:xlink="http://www.w3.org/1999/xlink">
 <defs>
  <style type="text/css">
   <![CDATA[
    .fil0 {fill:#013a51}
   ]]>
  </style>
 </defs>
 <g id="Слой_x0020_1">
  <metadata id="CorelCorpID_0Corel-Layer"/>
  <path class="fil0" d="M13218 8604c-33,-34 -78,-51 -122,-51 -44,0 -89,16 -122,49l-1 2c-35,34 -52,78 -52,123 1,43 18,88 52,122l0 1c16,16 35,28 55,37 21,8 44,13 67,13 23,0 46,-5 67,-13l1 0c19,-8 38,-21 55,-38 35,-34 52,-79 52,-123l-1 0c0,-44 -17,-89 -50,-123l-1 1zm-2600 1220l2959 -2959c198,-198 297,-459 297,-720 0,-260 -99,-521 -297,-719 -69,-69 -145,-126 -226,-170 -84,-47 -173,-81 -265,-102l-158 -36 68 -147c31,-66 55,-136 71,-209 16,-71 24,-145 24,-220 0,-137 -27,-269 -77,-390 -50,-121 -125,-233 -221,-330 -76,-76 -161,-137 -252,-185 -92,-47 -191,-81 -294,-98l-151 -26 48 -144c59,-180 66,-373 23,-557 -42,-177 -132,-345 -270,-482 -76,-77 -161,-138 -250,-184 -94,-48 -194,-81 -296,-99l-150 -26 47 -145c18,-52 31,-105 39,-157 8,-51 13,-106 13,-162 0,-137 -27,-269 -77,-390 -50,-121 -125,-233 -221,-330 -97,-97 -209,-171 -330,-221 -121,-51 -253,-77 -390,-77 -87,0 -171,11 -252,31 -82,21 -161,52 -234,92l-90 49 -98 -107c-179,-192 -395,-343 -632,-446 -237,-103 -494,-158 -757,-158l-2395 0c-48,0 -92,19 -123,51 -31,31 -51,74 -51,122l0 400c0,73 6,144 18,213 12,71 30,140 53,206l99 278 -273 -113c-61,-25 -124,-45 -190,-58 -65,-12 -132,-19 -200,-19 -137,0 -269,26 -391,77 -121,50 -233,124 -329,221l0 0c-138,138 -228,306 -270,483 -43,183 -35,377 24,557l47 144 -150 26c-102,17 -202,50 -296,99 -90,46 -174,107 -251,183 -96,97 -171,209 -221,330 -50,121 -77,253 -77,390 0,57 5,111 13,162 8,53 21,105 38,158l48 144 -151 26c-103,17 -202,51 -294,98 -91,47 -176,109 -251,185 -153,153 -247,342 -282,540 -36,204 -10,417 78,608l68 147 -158 36c-93,22 -181,55 -264,101 -81,45 -157,103 -226,172 -199,198 -298,459 -298,719 0,261 99,522 298,720l701 701 -2512 2513c-34,33 -51,78 -51,122 0,45 17,89 51,123l0 0c16,17 35,29 56,38l0 0c21,8 43,13 66,13 23,0 46,-5 67,-13l0 0c20,-9 39,-21 56,-38l0 0 2519 -2519 87 50c76,43 157,76 242,99 83,22 171,33 261,33 137,0 269,-26 390,-77 121,-50 233,-124 330,-221 103,-103 179,-222 228,-348 51,-132 74,-273 69,-413l-6 -142 163 7c5,0 0,0 20,0l0 0c133,0 266,-26 391,-77 119,-50 231,-123 329,-221l0 0c96,-96 171,-208 221,-329 50,-122 77,-254 77,-391 0,-19 0,-16 0,-19l-6 -164 162 7c5,0 1,0 20,0 134,0 267,-26 391,-77 119,-50 231,-123 329,-221l0 0c96,-96 171,-208 221,-329 50,-122 77,-254 77,-391 0,-19 0,-16 0,-20l-7 -163 163 7c5,0 1,0 20,0 134,0 267,-26 391,-77 119,-50 231,-123 329,-221 185,-186 284,-425 296,-668 12,-247 -64,-496 -228,-697l-76 -92 2108 -2109 1 1c63,-64 137,-113 217,-146l0 0c81,-34 168,-51 257,-51 89,0 175,17 256,51 81,33 155,82 218,146l0 -1c63,63 112,137 146,218 33,81 51,168 51,257 0,89 -18,175 -51,256l0 1c-33,80 -83,153 -146,217l0 0 -1381 1382c-34,34 -51,78 -51,122 0,45 17,90 51,123 16,17 35,30 55,38 21,8 44,13 67,13 23,0 46,-5 67,-13l0 0c20,-8 39,-21 56,-38l1083 -1083c131,-131 303,-196 474,-196l0 0c172,0 344,65 474,196l1 0c131,131 196,303 196,474 0,172 -65,343 -196,474l0 1 -1083 1083c-34,34 -51,78 -51,122 0,45 17,90 51,124 16,16 35,29 55,37 21,8 44,13 67,13 45,0 89,-17 123,-51l784 -784 1 0c63,-63 137,-113 217,-146 81,-33 168,-51 257,-51 88,0 175,18 256,51 81,33 155,83 218,146l0 0c63,62 112,136 146,218 33,80 51,167 51,256 0,89 -18,175 -51,256l0 1c-34,80 -83,154 -146,217l0 0 -784 785c-34,34 -51,78 -51,122 0,45 17,90 51,124 16,16 35,29 55,37 21,8 44,13 67,13 23,0 46,-4 67,-13l0 0c20,-8 39,-21 56,-38l375 -375 0 0c131,-130 303,-196 474,-195 172,0 344,65 474,195 131,131 197,303 197,475 0,171 -66,343 -197,474l-2958 2959c-383,382 -829,685 -1316,897 -486,211 -1011,332 -1553,352 -22,1 -43,6 -63,14 -20,9 -38,21 -53,37l-2734 2743 0 1 0 -1c-34,34 -50,79 -50,123 0,45 17,89 51,123l0 0 0 0c17,17 36,29 56,37 20,9 43,13 66,13 45,0 90,-17 123,-51l2086 -2092 89 57c244,157 509,272 786,343 276,71 565,98 856,79l60 -4 1615 1616 0 0c16,17 36,29 56,37 20,9 43,13 66,13 24,0 47,-4 67,-13 20,-8 39,-20 56,-37 34,-34 51,-79 51,-123 0,-44 -17,-89 -51,-123l-1673 -1673 1 0c-18,-18 -40,-31 -64,-40 -23,-8 -48,-12 -74,-10l-97 8c-235,19 -469,3 -695,-46 -228,-49 -447,-133 -652,-247l-151 -85 354 -355 50 -3c563,-35 1109,-171 1614,-399 504,-227 968,-546 1368,-946zm-6739 -1839c-63,63 -137,112 -217,145l0 0c-81,34 -168,51 -257,51 -89,0 -175,-17 -256,-51 -81,-33 -155,-82 -218,-145l0 0 -824 -824c-131,-131 -197,-303 -197,-475 0,-171 66,-343 197,-474l0 0c63,-63 137,-112 218,-146 81,-33 167,-51 256,-51 89,0 176,18 257,51l0 0c80,34 154,83 217,146l1 0 824 824 0 1c130,130 196,302 196,473l-1 0c0,172 -65,344 -195,475l-1 0zm1195 -1194l-1 0c-131,131 -302,196 -474,196 -172,0 -343,-65 -474,-196l-1234 -1234c-131,-131 -196,-303 -196,-474 0,-172 65,-344 196,-475l0 0c63,-63 137,-112 218,-145 81,-34 168,-51 256,-51 89,0 176,17 257,51 80,33 154,82 217,145l1 0 1234 1234c62,63 111,137 145,218 34,81 51,168 51,256 0,89 -17,176 -51,257 -33,80 -82,154 -145,217l0 1zm1193 -1194c-131,131 -302,196 -474,196 -172,0 -343,-65 -474,-196l-1533 -1533 0 0c-63,-63 -112,-137 -145,-218 -34,-80 -51,-167 -51,-256 0,-89 17,-175 51,-256 33,-81 83,-155 146,-218l-1 0c64,-64 138,-112 218,-145 83,-35 170,-52 257,-52 86,0 174,17 256,52 80,32 154,81 217,144l1 0 1533 1533 -1 0 1 0c63,63 112,137 145,218 33,81 51,168 51,256l0 0c0,90 -18,177 -51,257 -33,80 -83,154 -146,218zm1195 -1194c-131,131 -303,196 -475,196 -172,0 -343,-65 -474,-196l-1831 -1831c-131,-131 -196,-303 -196,-474 0,-172 65,-344 196,-475l0 0c64,-64 138,-112 218,-145 82,-34 170,-51 256,-51 87,0 174,17 257,51 79,33 153,81 217,145l1 0 1831 1831 -1 0c63,63 113,137 146,218 34,81 51,168 51,256l0 0c0,90 -18,177 -51,257 -33,80 -82,154 -146,217l1 1zm-106 -1545l-1152 -1152 434 92c44,10 88,17 133,22 45,4 89,7 132,7l0 -1 7 0 0 1 836 -4c48,0 92,-20 123,-52 31,-31 50,-75 50,-123 0,-48 -20,-91 -51,-122 -31,-31 -75,-50 -123,-50l-1 0 0 -1 -836 4 -1 1 -4 0c-120,0 -237,-24 -345,-69 -109,-45 -208,-111 -294,-196 -86,-85 -153,-185 -198,-294 -45,-109 -69,-227 -69,-348l0 -226 2221 0c214,0 425,45 619,129 194,85 370,208 516,365l99 106 -2003 2004 -93 -93zm7796 7663l-1175 -1162 0 0 0 0c-34,-34 -78,-51 -123,-51 -44,1 -88,18 -122,52l0 1 -1 -1c-33,34 -50,79 -50,123 0,44 18,89 52,123l0 0 0 0 1175 1162c16,17 35,29 55,37 21,9 44,13 67,13 23,0 46,-4 67,-13 20,-9 40,-21 56,-38l0 -1 1 1c33,-34 50,-79 50,-123 0,-44 -18,-89 -52,-123l0 0 0 0z"/>
 </g>
</svg>
